<svg width="4096" height="2730" viewBox="0 0 4096 2730" fill="none" xmlns="http://www.w3.org/2000/svg">
<path d="M2865.94 1424.79C2383.04 1146.03 1602.79 1146.03 1123.05 1424.79C643.307 1703.54 645.872 2155.6 1128.71 2434.35C1611.56 2713.11 2391.92 2713.16 2871.66 2434.35C3351.4 2155.54 3348.78 1703.6 2865.94 1424.79Z" fill="#F5F5F5"/>
<path d="M1871.44 2429.12L1149.08 2011.97L1293.46 1928.26L2015.98 2345.67L1871.44 2429.12Z" fill="#E6E6E6"/>
<path d="M2616.15 2030.36V2030.3L2201.36 1790.83H2201.41L1786.61 1551.36L1371.82 1311.89L959.749 1551.36L1374.49 1790.83L1789.29 2030.3V2030.36L2204.08 2269.83H2204.03L2618.83 2509.29L3030.95 2269.83L2616.15 2030.36Z" fill="#E6E6E6"/>
<path d="M2929.33 2241.92L2904.64 2221.61C2903.09 2182.7 2901.59 2141.43 2908.06 2103.21C2914.53 2064.99 2929.44 2026.77 2957.13 1999.14C2968.62 1987.54 2982.89 1977.76 2999.14 1975.83C3015.39 1973.91 3033.46 1982.14 3039.07 1997.48C3044.69 2012.82 3036.08 2031 3026.67 2045.27C3006.68 2075.68 2982.79 2103.43 2963.17 2134.11C2942.53 2166.41 2930.85 2203.62 2929.33 2241.92V2241.92Z" fill="#EF7A22"/>
<path d="M2929.33 2247.21L2954.03 2267.53C2972.31 2228.99 2997.49 2193.23 3032.28 2168.53C3044.69 2160.8 3056.3 2151.85 3066.92 2141.8C3076.86 2131.11 3083.81 2116.36 3080.93 2102.09C3077.24 2083.7 3057.73 2071.57 3038.97 2071.46C3020.2 2071.35 3002.67 2080.87 2988.19 2092.84C2943.45 2129.14 2918.11 2190.82 2929.33 2247.21Z" fill="#EF7A22"/>
<path opacity="0.3" d="M2929.33 2247.21L2954.03 2267.53C2972.31 2228.99 2997.49 2193.23 3032.28 2168.53C3044.69 2160.8 3056.3 2151.85 3066.92 2141.8C3076.86 2131.11 3083.81 2116.36 3080.93 2102.09C3077.24 2083.7 3057.73 2071.57 3038.97 2071.46C3020.2 2071.35 3002.67 2080.87 2988.19 2092.84C2943.45 2129.14 2918.11 2190.82 2929.33 2247.21Z" fill="black"/>
<path d="M2915.38 2232.62C2914.81 2232.61 2914.27 2232.37 2913.87 2231.96C2913.47 2231.55 2913.24 2231 2913.25 2230.43C2914.26 2172.7 2927.25 2066.01 3002.73 2000.58C3002.94 2000.4 3003.19 2000.25 3003.46 2000.16C3003.73 2000.07 3004.01 2000.04 3004.29 2000.06C3004.58 2000.08 3004.85 2000.15 3005.11 2000.28C3005.36 2000.41 3005.59 2000.58 3005.77 2000.8C3005.96 2001.01 3006.1 2001.26 3006.19 2001.53C3006.28 2001.8 3006.32 2002.08 3006.3 2002.36C3006.28 2002.65 3006.2 2002.92 3006.07 2003.18C3005.95 2003.43 3005.77 2003.66 3005.56 2003.84C2973.49 2031.48 2920.03 2097.76 2917.52 2230.7C2917.47 2231.23 2917.22 2231.72 2916.82 2232.07C2916.43 2232.43 2915.92 2232.62 2915.38 2232.62V2232.62Z" fill="white"/>
<path d="M2941.31 2259.19C2941.03 2259.16 2940.75 2259.08 2940.5 2258.95C2940.25 2258.81 2940.03 2258.63 2939.85 2258.41C2939.68 2258.2 2939.54 2257.94 2939.46 2257.67C2939.38 2257.4 2939.35 2257.12 2939.38 2256.84C2944.41 2204.93 2967.07 2133.41 3046.29 2087.6C3046.79 2087.33 3047.37 2087.26 3047.92 2087.41C3048.47 2087.56 3048.94 2087.92 3049.23 2088.41C3049.37 2088.65 3049.46 2088.92 3049.5 2089.2C3049.54 2089.48 3049.52 2089.77 3049.44 2090.04C3049.37 2090.32 3049.24 2090.57 3049.07 2090.8C3048.89 2091.02 3048.68 2091.21 3048.43 2091.35C2970.81 2136.19 2948.58 2206.32 2943.61 2257.05C2943.62 2257.35 2943.56 2257.64 2943.45 2257.92C2943.33 2258.19 2943.16 2258.44 2942.94 2258.64C2942.72 2258.84 2942.47 2259 2942.18 2259.09C2941.9 2259.19 2941.6 2259.22 2941.31 2259.19V2259.19Z" fill="white"/>
<path d="M993.264 1302.43C983.589 1293.18 972.524 1283.08 971.883 1269.72C971.917 1263.73 973.778 1257.9 977.216 1253C980.655 1248.1 985.508 1244.36 991.126 1242.3C996.796 1240.37 1002.79 1239.62 1008.76 1240.07C1014.73 1240.52 1020.55 1242.17 1025.87 1244.92C1036.46 1250.5 1045.89 1258.05 1053.67 1267.15C1077.09 1293.18 1094.05 1324.36 1103.16 1358.16C1112.27 1391.97 1113.28 1427.45 1106.1 1461.72C1105.89 1464.04 1105.17 1466.28 1103.99 1468.3C1102.82 1470.31 1101.22 1472.04 1099.31 1473.37C1092.85 1476.8 1085.47 1470.75 1081.09 1464.93C1071.43 1452.08 1064.19 1437.6 1059.71 1422.17C1055.8 1409.18 1057.57 1394.91 1052.7 1382.66C1040.78 1352.84 1016.3 1324.45 993.264 1302.43Z" fill="#EF7A22"/>
<path d="M1093.97 1455.84C1093.63 1455.85 1093.29 1455.79 1092.98 1455.66C1092.66 1455.53 1092.38 1455.35 1092.14 1455.11C1091.9 1454.87 1091.71 1454.58 1091.58 1454.27C1091.46 1453.95 1091.4 1453.61 1091.4 1453.28C1091.09 1415.74 1082.42 1378.75 1066.04 1344.97C1049.66 1311.2 1025.97 1281.5 996.685 1258.01C996.416 1257.8 996.191 1257.54 996.023 1257.25C995.856 1256.95 995.749 1256.62 995.709 1256.28C995.669 1255.95 995.697 1255.6 995.791 1255.28C995.886 1254.95 996.044 1254.64 996.257 1254.38C996.461 1254.11 996.717 1253.89 997.009 1253.72C997.301 1253.55 997.624 1253.45 997.958 1253.41C998.292 1253.37 998.63 1253.39 998.953 1253.49C999.277 1253.58 999.578 1253.74 999.839 1253.95C1029.75 1277.91 1053.95 1308.22 1070.67 1342.7C1087.4 1377.18 1096.24 1414.96 1096.54 1453.28C1096.54 1453.61 1096.48 1453.95 1096.35 1454.27C1096.23 1454.58 1096.04 1454.87 1095.8 1455.11C1095.56 1455.35 1095.27 1455.53 1094.96 1455.66C1094.65 1455.79 1094.31 1455.85 1093.97 1455.84V1455.84Z" fill="white"/>
<path d="M1062.16 1558.47C1046.13 1563.82 1025.39 1560.29 1015.98 1546.02C1004.86 1529.23 1011.81 1503.25 996.952 1489.78C988.667 1482.19 976.426 1481.45 965.415 1479.09C954.403 1476.74 942.109 1470.76 940.506 1459.58C938.314 1444.83 956.542 1432.59 953.922 1417.84C951.303 1403.08 931.365 1398.81 925.432 1385.34C920.087 1373.1 929.601 1358.24 942.216 1353.64C954.831 1349.04 968.943 1352.2 981.451 1356.9C993.959 1361.6 1006.25 1367.59 1019.56 1369.35C1032.87 1371.12 1049.39 1368.34 1059.6 1377.85C1073.18 1390.58 1065.43 1414.84 1075.9 1430.18C1082.96 1440.5 1096.27 1444.08 1106.42 1451.57C1112.74 1456.14 1117.87 1462.16 1121.37 1469.13C1124.88 1476.1 1126.66 1483.8 1126.58 1491.6C1126.26 1508.55 1117.33 1520.73 1104.61 1530.46C1091.03 1540.62 1078.9 1553.07 1062.16 1558.47Z" fill="#EF7A22"/>
<path opacity="0.2" d="M1062.16 1558.47C1046.13 1563.82 1025.39 1560.29 1015.98 1546.02C1004.86 1529.23 1011.81 1503.25 996.952 1489.78C988.667 1482.19 976.426 1481.45 965.415 1479.09C954.403 1476.74 942.109 1470.76 940.506 1459.58C938.314 1444.83 956.542 1432.59 953.922 1417.84C951.303 1403.08 931.365 1398.81 925.432 1385.34C920.087 1373.1 929.601 1358.24 942.216 1353.64C954.831 1349.04 968.943 1352.2 981.451 1356.9C993.959 1361.6 1006.25 1367.59 1019.56 1369.35C1032.87 1371.12 1049.39 1368.34 1059.6 1377.85C1073.18 1390.58 1065.43 1414.84 1075.9 1430.18C1082.96 1440.5 1096.27 1444.08 1106.42 1451.57C1112.74 1456.14 1117.87 1462.16 1121.37 1469.13C1124.88 1476.1 1126.66 1483.8 1126.58 1491.6C1126.26 1508.55 1117.33 1520.73 1104.61 1530.46C1091.03 1540.62 1078.9 1553.07 1062.16 1558.47Z" fill="black"/>
<path d="M1054.79 1442.96V1442.69C1052.33 1439.16 1049.82 1435.69 1047.14 1432.32C1023.04 1402.47 990.349 1380.73 953.495 1370.05C953.169 1369.94 952.824 1369.91 952.483 1369.94C952.142 1369.97 951.811 1370.07 951.51 1370.24C951.21 1370.4 950.946 1370.63 950.736 1370.9C950.526 1371.17 950.373 1371.48 950.288 1371.81C950.105 1372.47 950.187 1373.18 950.517 1373.78C950.846 1374.38 951.397 1374.82 952.052 1375.02C987.834 1385.42 1019.56 1406.56 1042.92 1435.58C1043.67 1436.49 1044.31 1437.45 1045.01 1438.36C1015.82 1427.67 986.208 1433.77 970.172 1446.54C969.907 1446.75 969.687 1447.02 969.524 1447.32C969.361 1447.61 969.26 1447.94 969.225 1448.28C969.19 1448.62 969.223 1448.96 969.321 1449.29C969.42 1449.61 969.582 1449.91 969.798 1450.18C970.03 1450.48 970.33 1450.72 970.673 1450.89C971.017 1451.06 971.394 1451.14 971.776 1451.14C972.378 1451.13 972.961 1450.92 973.433 1450.55C989.148 1437.88 1021.54 1432.27 1050.99 1446.49C1069.38 1473.42 1080.18 1504.81 1082.26 1537.36C1082.3 1538.01 1082.59 1538.62 1083.07 1539.07C1083.55 1539.52 1084.18 1539.76 1084.83 1539.76C1085.17 1539.74 1085.5 1539.66 1085.8 1539.51C1086.1 1539.36 1086.37 1539.15 1086.6 1538.9C1086.82 1538.65 1086.99 1538.35 1087.1 1538.03C1087.21 1537.71 1087.26 1537.37 1087.23 1537.04C1085.11 1503.32 1073.9 1470.81 1054.79 1442.96V1442.96Z" fill="white"/>
<path d="M1377.43 1199.16L1039.88 1395.33L1039.45 1560.18L1379.2 1756.3L1716.7 1560.18L1717.18 1395.33L1377.43 1199.16Z" fill="#EF7A22"/>
<path opacity="0.2" d="M1717.18 1395.33L1377.43 1199.16L1039.88 1395.33L1379.62 1591.45L1717.18 1395.33Z" fill="white"/>
<path opacity="0.3" d="M1379.62 1591.45L1379.2 1756.3L1716.7 1560.18L1717.18 1395.33L1379.62 1591.45Z" fill="black"/>
<path d="M1780.73 1221.4L1443.18 1417.57L1442.75 1793.02L1782.5 1989.2L2120.05 1793.02L2120.48 1417.57L1780.73 1221.4Z" fill="#EF7A22"/>
<path opacity="0.2" d="M2120.48 1417.57L1780.74 1221.4L1443.18 1417.57L1782.93 1613.74L2120.48 1417.57Z" fill="white"/>
<path opacity="0.3" d="M1782.93 1613.74L1782.5 1989.2L2120.05 1793.02L2120.48 1417.57L1782.93 1613.74Z" fill="black"/>
<path d="M2193.77 1245.29L1856.21 1441.41L1855.78 2030.41L2195.53 2226.58L2533.03 2030.41L2533.51 1441.41L2193.77 1245.29Z" fill="#EF7A22"/>
<path opacity="0.2" d="M2533.51 1441.41L2193.77 1245.29L1856.21 1441.41L2195.96 1637.58L2533.51 1441.41Z" fill="white"/>
<path opacity="0.3" d="M2195.96 1637.58L2195.53 2226.58L2533.03 2030.41L2533.51 1441.41L2195.96 1637.58Z" fill="black"/>
<path d="M2193.98 1243.74L1856.42 1439.86L1856 2029.61L2195.74 2225.78L2533.25 2029.61L2533.73 1439.86L2193.98 1243.74Z" fill="#EF7A22"/>
<path opacity="0.2" d="M2533.73 1439.86L2193.98 1243.74L1856.42 1439.86L2196.17 1636.03L2533.73 1439.86Z" fill="white"/>
<path opacity="0.3" d="M2196.17 1636.03L2195.74 2225.78L2533.25 2029.61L2533.73 1439.86L2196.17 1636.03Z" fill="black"/>
<path d="M2616.37 1186.12L2278.86 1382.29L2278.38 2274.53L2618.13 2470.7L2955.69 2274.53L2956.11 1382.29L2616.37 1186.12Z" fill="#EF7A22"/>
<path opacity="0.2" d="M2956.11 1382.29L2616.37 1186.12L2278.86 1382.29L2618.61 1578.46L2956.11 1382.29Z" fill="white"/>
<path opacity="0.3" d="M2618.61 1578.46L2618.13 2470.7L2955.69 2274.53L2956.11 1382.29L2618.61 1578.46Z" fill="black"/>
<path d="M1999.25 1421.31L1975.95 1405.7L1800.09 1762.66L1823.18 1778.27L1926.45 1718.67C1921.96 1886.46 1875.4 1970.6 1830.23 2018.92L1823.02 2020.73L1818.79 2021.7L1810.35 2023.51L1806.55 2024.32L1800.09 2025.49L1795.33 2026.29L1788.49 2027.36L1783.94 2028.06C1781.43 2028.43 1778.6 2028.7 1776.3 2029.02L1772.29 2029.55L1761.6 2030.62H1760.48C1756.57 2031 1752.62 2031.26 1748.66 2031.53C1743.64 2031.91 1738.56 2032.12 1733.43 2032.33H1728.83H1717.66H1713.12C1706.97 2032.33 1700.77 2032.33 1694.57 2032.01H1691.36C1685.59 2032.01 1679.82 2031.48 1673.99 2031.1H1671.05C1665.12 2030.68 1659.18 2030.2 1653.2 2029.55L1648.92 2029.13C1643.57 2028.54 1638.23 2027.95 1632.88 2027.26L1629.73 2026.83C1623.9 2026.03 1618.08 2025.17 1612.2 2024.21L1607.97 2023.46C1603.16 2022.66 1598.41 2021.8 1593.6 2020.89L1589.11 2020.04C1583.39 2018.92 1577.61 2017.69 1571.79 2016.4L1569.17 2015.82C1564.2 2014.69 1559.17 2013.46 1554.15 2012.24L1548.8 2010.95L1535.39 2007.42L1531.27 2006.3C1525.55 2004.7 1519.78 2003.04 1514 2001.28L1510 2000.05C1505.58 1998.73 1501.14 1997.34 1496.69 1995.88L1491.34 1994.06L1478.35 1989.62L1473.81 1988.07C1468.11 1986.04 1462.39 1983.96 1456.65 1981.82L1453.55 1980.59C1448.79 1978.83 1444.03 1976.96 1439.28 1975.25L1433.93 1973L1421.64 1967.92L1416.29 1965.62L1400.26 1958.73L1398.76 1958.09C1392.99 1955.47 1387.16 1952.74 1381.39 1950.07L1376.04 1947.66C1371.87 1945.69 1367.65 1943.65 1363.48 1941.57L1357.71 1938.74C1353.27 1936.55 1348.89 1934.3 1344.45 1932L1340.01 1929.76L1322.54 1920.46C1319.33 1918.8 1316.17 1917.04 1313.02 1915.11C1311.36 1914.2 1309.71 1913.35 1308.1 1912.38L1293.94 1904.42L1293.51 1904.15L1149.08 1988.5V2011.97C1313.18 2106.42 1473.91 2151.37 1614.12 2142.07C1680.78 2137.69 1737.65 2121.39 1783.94 2093.59C1782.82 2094.29 1781.7 2095.03 1780.52 2095.68L1925.38 2011.49C1938.24 2004.03 1950.47 1995.54 1961.94 1986.1C1963.49 1984.87 1965.09 1983.53 1966.64 1982.19L1968.03 1981.02L1971.72 1977.76L1973.01 1976.64L1977.87 1972.2L1978.67 1971.4L1982.79 1967.49L1984.28 1966.05L1988.35 1961.94L1989.31 1960.92C1990.97 1959.21 1992.62 1957.5 1994.28 1955.57C1994.65 1955.09 1995.08 1954.67 1995.51 1954.19C1996.79 1952.8 1998.08 1951.35 1999.36 1949.86L2000.8 1948.14C2002.41 1946.33 2003.96 1944.46 2005.51 1942.53L2005.83 1942.16C2007.48 1940.13 2009.14 1938.04 2010.74 1935.9C2011.22 1935.26 2011.71 1934.67 2012.13 1934.03C2013.42 1932.38 2014.65 1930.67 2015.93 1928.96L2017.26 1927.08L2022.08 1920.03C2022.33 1919.7 2022.56 1919.36 2022.77 1919.01L2025.82 1914.36L2026.73 1912.87L2029.02 1909.07C2029.99 1907.52 2030.95 1905.97 2031.86 1904.37L2034.16 1900.36L2036.88 1895.44L2039.18 1891.16C2040.04 1889.45 2040.94 1887.74 2041.8 1885.82L2044.04 1881.38C2044.42 1880.53 2044.79 1879.78 2045.22 1878.98C2045.65 1878.17 2046.56 1876.09 2047.2 1874.59L2048.16 1872.56C2049.55 1869.46 2050.94 1866.25 2052.33 1862.99C2052.6 1862.3 2052.92 1861.5 2053.24 1860.8C2054.31 1858.08 2055.43 1855.46 2056.5 1852.57L2057.52 1849.84C2057.52 1849.2 2058 1848.62 2058.26 1848.03L2059.39 1844.77C2060.45 1841.83 2061.47 1838.89 2062.49 1835.89C2063.07 1834.18 2063.66 1832.42 2064.2 1830.55C2065.16 1827.55 2066.12 1824.56 2067.03 1821.46C2067.35 1820.34 2067.72 1819.32 2068.05 1818.2C2068.37 1817.08 2068.47 1816.54 2068.74 1815.74C2069.44 1813.28 2070.13 1810.72 2070.82 1808.15C2071.52 1805.59 2071.95 1803.88 2072.54 1801.68C2073.12 1799.49 2073.82 1796.34 2074.46 1793.67C2074.89 1792.06 2075.26 1790.51 2075.64 1788.85C2075.64 1788.21 2075.96 1787.47 2076.06 1786.82C2076.6 1784.47 2077.08 1782.12 2077.61 1779.77L2079.22 1771.96C2079.7 1769.5 2080.13 1767.05 2080.55 1764.59C2080.98 1762.13 2081.3 1760.9 2081.62 1759.24C2081.62 1758.33 2081.89 1757.42 2082.05 1756.52L2083.17 1749.57C2083.65 1746.63 2084.08 1743.63 2084.51 1740.59C2084.94 1737.54 2085.2 1735.78 2085.52 1733.32C2085.52 1731.66 2086.01 1730.06 2086.22 1728.35L2086.7 1723.91C2086.97 1721.5 2087.29 1719.15 2087.5 1716.69C2087.88 1713.43 2088.2 1710.06 2088.52 1706.75C2088.79 1704.29 2089 1701.83 2089.21 1699.32L2089.53 1695.9C2089.53 1693.49 2089.91 1690.98 2090.07 1688.52C2090.23 1686.06 2090.44 1683.82 2090.55 1681.41C2090.55 1677.41 2091.03 1673.29 2091.24 1669.17C2091.24 1667.04 2091.24 1664.95 2091.56 1662.81C2091.56 1662.38 2091.56 1661.96 2091.56 1661.53C2091.56 1656.18 2091.94 1650.46 2092.1 1644.85V1643.52C2092.1 1637.37 2092.1 1631.06 2092.1 1624.7C2092.1 1624.06 2092.1 1623.47 2092.1 1622.83L2176.29 1574.24L1999.25 1421.31Z" fill="#455A64"/>
<path d="M1999.25 1421.31L1823.39 1778.27L1800.3 1762.66L1975.95 1405.7L1999.25 1421.31ZM1792.23 2088.3C1795.38 2086.27 1798.43 2084.18 1801.48 2081.99L1805.11 2079.43C1809.12 2076.49 1813.07 2073.49 1816.92 2070.34L1821.57 2066.38L1822.96 2065.21L1826.06 2062.53L1826.65 2062L1827.93 2060.88C1829.54 2059.43 1831.19 2057.94 1832.8 2056.39L1833.65 2055.59L1834.94 2054.41L1837.77 2051.68L1839.21 2050.24C1839.53 2049.92 1839.85 2049.55 1840.23 2049.22L1843.28 2046.18L1844.24 2045.16L1847.61 2041.58L1849.21 2039.87L1850.44 2038.53L1854.29 2034.15L1855.78 2032.44L1857.28 2030.68L1860.49 2026.83C1860.51 2026.7 1860.51 2026.58 1860.49 2026.45C1860.97 2025.92 1861.4 2025.33 1861.82 2024.8C1863.05 2023.3 1864.23 2021.75 1865.46 2020.2L1866.85 2018.38L1869.68 2014.48L1870.59 2013.25L1871.93 2011.38L1874.65 2007.42L1876.79 2004.38C1876.99 2004 1877.22 2003.64 1877.49 2003.31L1879.25 2000.48C1880 1999.41 1880.69 1998.28 1881.39 1997.16C1882.08 1996.04 1882.94 1994.65 1883.74 1993.37C1884.54 1992.08 1885.61 1990.27 1886.52 1988.66C1887.43 1987.06 1888.07 1985.99 1888.87 1984.65L1890.63 1981.45L1891.6 1979.74L1893.84 1975.46C1894.43 1974.39 1894.96 1973.27 1895.55 1972.15L1896.51 1970.27C1897.26 1968.83 1897.96 1967.33 1898.71 1965.84L1899.08 1965.04L1901.91 1959.1C1902.23 1958.41 1902.5 1957.71 1902.82 1957.07C1903.73 1955.09 1904.59 1953.01 1905.49 1950.98C1905.98 1949.8 1906.51 1948.68 1906.99 1947.5C1907.47 1946.33 1907.63 1945.95 1907.9 1945.21C1909.02 1942.53 1910.09 1939.86 1911.16 1937.08C1911.53 1936.12 1911.86 1935.21 1912.23 1934.3C1912.6 1933.39 1913.03 1932.11 1913.46 1930.99L1914.1 1929.22C1915.12 1926.28 1916.19 1923.34 1917.15 1920.35C1917.63 1919.07 1918.06 1917.68 1918.48 1916.34L1918.91 1915.11C1919.87 1912.12 1920.78 1909.12 1921.74 1906.02V1905.65C1922.28 1903.89 1922.81 1902.12 1923.29 1900.3C1923.78 1898.49 1924.68 1895.28 1925.38 1892.71C1925.38 1892.71 1925.38 1892.29 1925.38 1892.02C1925.86 1890.09 1926.39 1888.22 1926.88 1886.25C1927.57 1883.63 1928.21 1880.9 1928.85 1878.23L1930.46 1871.39C1930.99 1869.09 1931.47 1866.68 1931.95 1864.33C1932.27 1862.89 1932.54 1861.44 1932.86 1860C1933.18 1858.56 1933.34 1857.7 1933.56 1856.53C1934.04 1854.07 1934.52 1851.61 1934.95 1849.15C1935.38 1846.85 1935.8 1844.55 1936.18 1842.2C1936.18 1841.77 1936.18 1841.35 1936.18 1840.86C1936.6 1838.57 1936.98 1836.27 1937.3 1833.92C1937.78 1830.98 1938.26 1827.98 1938.69 1824.99L1939.65 1817.67C1940.08 1814.57 1940.51 1811.41 1940.88 1808.26L1941.68 1801.1C1942.06 1797.78 1942.38 1794.47 1942.7 1791.1C1942.7 1788.64 1943.18 1786.18 1943.39 1783.72C1943.66 1780.14 1943.98 1776.51 1944.19 1773.03C1944.19 1770.68 1944.57 1768.33 1944.73 1765.92C1945 1761.91 1945.21 1757.8 1945.42 1753.68C1945.42 1751.54 1945.42 1749.51 1945.74 1747.32C1946.01 1741.44 1946.17 1735.4 1946.33 1729.31C1946.33 1728.88 1946.33 1728.45 1946.33 1728.03C1946.33 1721.18 1946.33 1714.13 1946.33 1706.96L1925.65 1718.88C1921.16 1886.67 1874.6 1970.81 1829.43 2019.13C1820.26 2028.89 1810.48 2038.05 1800.14 2046.55C1788.4 2056.15 1775.89 2064.75 1762.72 2072.26C1760.37 2073.6 1757.96 2074.88 1755.56 2076.17L1750.91 2078.62C1748.34 2079.96 1745.56 2081.19 1743.05 2082.42L1738.67 2084.5C1735.41 2086 1732.04 2087.39 1728.67 2088.78L1727.39 2089.31C1722.63 2091.24 1717.87 2093.06 1713.01 2094.66C1710.44 2095.57 1707.66 2096.37 1705.21 2097.23L1700.66 2098.72C1697.4 2099.74 1694.03 2100.7 1690.67 2101.61L1685.64 2102.94C1682.86 2103.69 1679.98 2104.44 1677.09 2105.08L1671.21 2106.42C1668.04 2107.17 1664.83 2107.86 1661.59 2108.5L1659.08 2108.93L1648.71 2110.8L1644.22 2111.5L1635.34 2112.73L1630.43 2113.37L1621.28 2114.38L1616.74 2114.87C1612.25 2115.29 1607.71 2115.67 1603.11 2115.93C1598.51 2116.2 1592.69 2116.52 1587.45 2116.74H1583.23C1579.54 2116.74 1575.85 2116.74 1572.11 2116.74H1567.51C1561.36 2116.74 1555.22 2116.74 1548.96 2116.42H1548.05C1541.53 2116.42 1535.01 2115.83 1528.49 2115.4H1525.6C1519.51 2114.97 1513.36 2114.44 1507.22 2113.8H1506.25C1500.16 2113.15 1494.01 2112.46 1487.81 2111.66L1484.66 2111.23C1477.71 2110.27 1470.76 2109.2 1463.76 2108.02H1462.9L1448.52 2105.46L1444.09 2104.6C1438.31 2103.48 1432.54 2102.25 1426.77 2100.97L1424.15 2100.38C1419.13 2099.26 1414.1 2098.08 1409.08 2096.8L1403.73 2095.52C1399.29 2094.39 1394.8 2093.22 1390.37 2091.99H1389.94C1382.99 2090.06 1375.99 2088.09 1368.99 2086L1364.92 2084.72C1359.58 2083.11 1354.23 2081.46 1348.89 2079.75C1343.54 2078.04 1338.2 2076.27 1332.85 2074.4L1328.31 2072.85C1322.43 2070.77 1316.5 2068.57 1310.62 2066.38L1308 2065.37L1293.78 2060.02L1288.43 2057.78C1283.09 2055.59 1277.74 2053.29 1272.08 2050.99L1271.49 2050.72C1266.14 2048.42 1260.48 2046.02 1254.97 2043.56L1254.33 2042.38C1248.56 2039.76 1242.78 2037.04 1237.01 2034.42L1231.67 2031.96C1227.5 2030 1223.33 2027.97 1219.16 2025.87L1213.33 2023.03C1208.47 2020.63 1203.6 2018.11 1198.74 2015.6L1195.64 2014.05C1189.81 2011.01 1183.99 2007.96 1178.16 2004.81L1168.54 1999.46L1163.78 1996.84C1158.92 1994.11 1154 1991.5 1149.13 1988.56V2012.02C1313.23 2106.47 1473.97 2151.43 1614.18 2142.13C1680.83 2137.74 1737.71 2121.44 1784 2093.64C1785.44 2092.84 1786.83 2091.99 1788.22 2091.08C1789.61 2090.17 1790.84 2089.21 1792.23 2088.3Z" fill="#37474F"/>
<path opacity="0.2" d="M1168.48 1999.62L1178.11 2004.97C1183.93 2008.12 1189.76 2011.17 1195.58 2014.21L1198.68 2015.76C1203.55 2018.27 1208.41 2020.79 1213.28 2023.19L1219.1 2026.03C1223.27 2028.09 1227.44 2030.12 1231.61 2032.12L1236.96 2034.58C1242.73 2037.3 1248.5 2039.92 1254.28 2042.54L1255.72 2043.18C1261.06 2045.64 1266.73 2048.05 1272.24 2050.35L1272.82 2050.61C1278.17 2052.91 1283.51 2055.21 1289.18 2057.4L1294.53 2059.65L1308.74 2064.99L1311.36 2066.01C1317.24 2068.2 1323.18 2070.39 1329.06 2072.48L1333.6 2074.03C1338.95 2075.9 1344.29 2077.66 1349.64 2079.37C1354.98 2081.08 1360.33 2082.74 1365.67 2084.34L1369.73 2085.63C1376.74 2087.71 1383.74 2089.69 1390.69 2091.61H1391.12C1395.55 2092.84 1400.04 2094.02 1404.48 2095.14L1409.82 2096.42C1414.85 2097.71 1419.87 2098.88 1424.9 2100L1427.52 2100.59C1433.29 2101.88 1439.06 2103.11 1444.84 2104.23L1449.27 2105.08L1463.65 2107.65H1464.51C1471.51 2108.82 1478.46 2109.89 1485.41 2110.86L1488.56 2111.28C1494.76 2112.09 1500.91 2112.78 1507 2113.42H1507.96C1514.11 2114.06 1520.26 2114.6 1526.35 2115.02H1529.24C1535.76 2115.45 1542.28 2115.83 1548.8 2116.04H1549.71C1555.96 2116.04 1562.11 2116.36 1568.26 2116.36H1572.86C1576.6 2116.36 1580.29 2116.36 1583.97 2116.36H1588.2C1593.54 2116.36 1598.89 2115.93 1603.86 2115.56C1608.83 2115.19 1613 2114.92 1617.49 2114.49L1622.03 2114.01L1631.17 2112.99L1636.09 2112.35L1644.96 2111.12L1649.45 2110.43L1659.82 2108.56L1662.34 2108.13C1665.58 2107.49 1668.79 2106.79 1671.96 2106.04L1677.84 2104.71C1680.72 2104.07 1683.61 2103.32 1686.39 2102.57L1691.42 2101.23C1694.78 2100.33 1698.15 2099.36 1701.41 2098.35L1705.95 2096.85C1708.57 2096 1711.3 2095.19 1713.76 2094.29C1718.62 2092.57 1723.38 2090.76 1728.14 2088.94L1729.42 2088.41C1732.79 2087.02 1736.16 2085.63 1739.42 2084.13L1743.8 2082.04C1746.42 2080.82 1749.14 2079.59 1751.66 2078.25L1756.31 2075.79C1758.71 2074.51 1761.12 2073.22 1763.47 2071.89C1776.64 2064.38 1789.15 2055.78 1800.89 2046.18C1811.23 2037.67 1821.01 2028.51 1830.18 2018.76L1822.96 2020.57L1818.74 2021.54L1810.29 2023.35L1806.5 2024.15L1800.03 2025.33L1795.27 2026.13L1788.43 2027.2L1783.89 2027.9C1781.38 2028.27 1778.54 2028.54 1776.25 2028.86L1772.24 2029.39L1761.55 2030.46H1760.42C1756.52 2030.84 1752.57 2031.1 1748.61 2031.37C1743.59 2031.75 1738.51 2031.96 1733.38 2032.17H1728.78H1717.61H1713.06C1706.92 2032.17 1700.72 2032.17 1694.52 2031.85H1691.31C1685.54 2031.85 1679.76 2031.32 1673.94 2030.94H1671C1665.06 2030.52 1659.13 2030.03 1653.14 2029.39L1648.87 2028.97C1643.52 2028.38 1638.18 2027.79 1632.83 2027.09L1629.68 2026.67C1623.85 2025.87 1618.02 2025.01 1612.14 2024.05L1607.92 2023.3C1603.11 2022.5 1598.35 2021.64 1593.54 2020.73L1589.05 2019.88C1583.33 2018.76 1577.56 2017.53 1571.73 2016.24L1569.11 2015.66C1564.14 2014.53 1559.12 2013.3 1554.09 2012.07L1548.75 2010.79L1535.33 2007.26L1531.22 2006.14C1525.5 2004.54 1519.72 2002.88 1513.95 2001.12L1509.94 1999.89C1505.52 1998.57 1501.09 1997.18 1496.63 1995.72L1491.29 1993.9L1478.3 1989.46L1473.75 1987.91C1468.05 1985.88 1462.33 1983.8 1456.6 1981.66L1453.5 1980.43C1448.74 1978.67 1443.98 1976.8 1439.22 1975.08L1433.88 1972.84L1421.58 1967.76L1416.24 1965.46L1400.2 1958.57L1398.71 1957.93C1392.93 1955.31 1387.11 1952.58 1381.33 1949.91L1375.99 1947.5C1371.82 1945.53 1367.6 1943.49 1363.43 1941.41L1357.65 1938.58C1353.22 1936.38 1348.83 1934.14 1344.4 1931.84L1339.96 1929.6L1322.48 1920.3C1319.27 1918.64 1316.12 1916.87 1312.97 1914.95C1311.31 1914.04 1309.65 1913.19 1308.05 1912.22L1293.88 1904.26L1293.46 1903.99L1149.08 1988.5C1153.94 1991.33 1158.86 1993.85 1163.73 1996.79L1168.48 1999.62Z" fill="white"/>
<path d="M2037.79 412.064C2037.8 411.335 2037.61 410.617 2037.24 409.987C2036.87 409.357 2036.34 408.837 2035.71 408.482V408.482L2017.21 398.166C2016.6 397.814 2015.91 397.629 2015.21 397.629C2014.5 397.629 2013.81 397.814 2013.2 398.166L1886.36 471.397C1884.02 472.668 1882.15 474.653 1881.01 477.063C1880.31 478.664 1879.95 480.393 1879.94 482.141V529.286L1836.01 574.722C1832.1 578.784 1831.68 584.931 1834.72 585.893L1852.26 595.515C1852.54 595.841 1852.91 596.086 1853.33 596.227C1853.74 596.367 1854.18 596.398 1854.61 596.317L1880.1 593.216V627.854C1880.1 628.569 1880.29 629.271 1880.65 629.891C1881 630.51 1881.52 631.024 1882.14 631.382V631.382L1900.58 641.591H1900.84C1901.42 641.891 1902.06 642.048 1902.72 642.048C1903.37 642.048 1904.01 641.891 1904.59 641.591L2031.43 568.307C2033.31 567.227 2034.88 565.67 2035.96 563.793C2037.05 561.917 2037.63 559.786 2037.63 557.617L2037.79 412.064ZM1901.86 484.012L1901.43 484.493L1901.86 484.012ZM1900.63 485.562C1900.66 485.703 1900.66 485.848 1900.63 485.989C1900.66 485.848 1900.66 485.703 1900.63 485.562ZM1898.87 489.731C1898.89 489.909 1898.89 490.088 1898.87 490.266C1898.89 490.088 1898.89 489.909 1898.87 489.731V489.731ZM1902.77 483.103L1903.2 482.729L1902.77 483.103Z" fill="#EF7A22"/>
<path opacity="0.1" d="M1898.97 638.117C1898.98 638.817 1899.16 639.505 1899.51 640.114C1899.85 640.723 1900.35 641.232 1900.95 641.591L1882.51 631.221C1881.89 630.864 1881.38 630.349 1881.02 629.73C1880.66 629.11 1880.48 628.408 1880.48 627.693V593.056L1899.03 590.811L1898.97 638.117Z" fill="black"/>
<path opacity="0.2" d="M1886.2 471.343L2013.04 398.112C2013.65 397.76 2014.34 397.575 2015.05 397.575C2015.75 397.575 2016.44 397.76 2017.05 398.112V398.112L2035.55 408.429C2034.92 408.062 2034.21 407.869 2033.49 407.869C2032.76 407.869 2032.05 408.062 2031.43 408.429L1904.75 481.553C1902.35 482.9 1900.47 485.006 1899.4 487.539L1880.96 476.849C1882.09 474.515 1883.92 472.59 1886.2 471.343Z" fill="white"/>
<path opacity="0.1" d="M1880.16 529.232V482.087C1880.16 480.339 1880.53 478.61 1881.23 477.009L1899.67 487.699C1899.04 489.207 1898.74 490.826 1898.76 492.457V539.656L1880.21 529.286L1880.16 529.232Z" fill="black"/>
<path opacity="0.05" d="M1836.22 574.668L1880.16 529.232L1898.71 539.602L1854.82 584.984C1851.4 588.458 1850.65 593.536 1852.47 595.675L1834.94 586.053C1831.89 584.877 1832.32 578.73 1836.22 574.668Z" fill="white"/>
<path d="M1974.29 474.978C1974.69 474.661 1975.19 474.489 1975.71 474.489C1976.22 474.489 1976.72 474.661 1977.12 474.978L2001.98 498.764C2003.74 500.421 2001.98 505.232 1999.2 506.889L1985.46 514.8L1985.78 571.3L1963.76 584.022L1963.44 527.522L1949.7 535.433C1946.81 537.144 1945.16 534.257 1946.87 530.622L1971.46 478.238C1972.08 476.91 1973.06 475.781 1974.29 474.978V474.978Z" fill="white"/>
<path opacity="0.1" d="M1957.99 1381.22C1949.59 1361.6 1932.11 1343 1905.6 1327.77C1828.36 1283.13 1703.55 1283.13 1626.79 1327.77C1550.03 1372.4 1550.46 1444.67 1627.7 1489.25C1689.7 1525.06 1782.39 1532.01 1856.21 1510.36V1441.41L1957.99 1381.22Z" fill="black"/>
<path d="M1493.64 886.247L1583.71 815.902L1592.47 831.724L1501.07 903.405L1493.64 886.247Z" fill="#263238"/>
<path d="M1659.24 949.534L1709.8 944.938C1703.39 977.009 1692.11 1021.48 1692.11 1021.48L1645.5 991.549L1659.24 949.534Z" fill="#455A64"/>
<path d="M1381.87 1156.45C1381.81 1144.88 1385.57 1133.61 1392.56 1124.38C1398.12 1118.02 1404.01 1111.96 1410.2 1106.21C1414.62 1101.95 1417.99 1096.71 1420.03 1090.92C1421.99 1084.26 1424.91 1077.92 1428.69 1072.1C1432.9 1065.38 1439.52 1060.5 1447.19 1058.47C1448.69 1058.12 1450.25 1058.07 1451.77 1058.35C1453.28 1058.63 1454.73 1059.21 1456.01 1060.08L1454.51 1058.2C1453.18 1056.53 1451.39 1055.26 1449.36 1054.57C1447.34 1053.88 1445.15 1053.79 1443.07 1054.3C1435.22 1056.34 1428.46 1061.34 1424.2 1068.25C1420.29 1074.14 1417.3 1080.6 1415.33 1087.39C1413.31 1093.46 1409.87 1098.96 1405.28 1103.43C1398.97 1109.29 1392.98 1115.48 1387.32 1121.97C1380.17 1131.36 1376.3 1142.83 1376.31 1154.63C1376.12 1157.07 1376.42 1159.51 1377.19 1161.82C1377.96 1164.14 1379.19 1166.27 1380.8 1168.1C1382.69 1169.78 1385.07 1170.81 1387.59 1171.04C1387.09 1170.73 1386.62 1170.38 1386.2 1169.97C1384.59 1168.14 1383.37 1165.99 1382.63 1163.66C1381.88 1161.34 1381.62 1158.88 1381.87 1156.45V1156.45Z" fill="black"/>
<path d="M1458.47 1062C1457.78 1061.15 1456.97 1060.41 1456.06 1059.81C1454.78 1058.95 1453.34 1058.36 1451.82 1058.08C1450.3 1057.81 1448.74 1057.85 1447.24 1058.21C1439.57 1060.24 1432.96 1065.11 1428.75 1071.84C1424.92 1077.73 1421.98 1084.16 1420.03 1090.92C1418.05 1096.85 1414.67 1102.22 1410.2 1106.58C1404.01 1112.33 1398.12 1118.4 1392.56 1124.75C1385.57 1133.98 1381.81 1145.25 1381.87 1156.83C1381.67 1159.21 1381.96 1161.61 1382.72 1163.87C1383.47 1166.14 1384.67 1168.24 1386.25 1170.03C1386.68 1170.43 1387.14 1170.79 1387.64 1171.1C1389.42 1172.16 1391.41 1172.81 1393.47 1173.01C1395.54 1173.2 1397.62 1172.93 1399.56 1172.22C1404.01 1170.49 1407.89 1167.57 1410.79 1163.78C1413.83 1160.19 1416.13 1156.18 1419.39 1152.55C1424.6 1146.76 1430.42 1141.57 1436.76 1137.05L1453.92 1123.9L1461.73 1066.7C1461.73 1066.7 1460.28 1064.19 1458.47 1062Z" fill="#263238"/>
<path d="M1580.82 1052.38L1578.2 1122.99C1546.13 1090.49 1462.64 1060.18 1462.64 1060.18C1430.99 1083.49 1438.05 1110.27 1449.91 1122.99C1515.34 1158.59 1590.07 1206.48 1607.17 1202.53C1624.28 1198.57 1646.94 1172.59 1663.57 1123.63L1631.49 1068.57L1580.82 1052.38Z" fill="#37474F"/>
<path d="M1807.25 1431.52C1806.55 1432.96 1805.58 1434.25 1804.37 1435.31C1803.17 1436.36 1801.77 1437.17 1800.25 1437.67C1797.22 1438.67 1794.07 1439.23 1790.89 1439.33C1784.01 1440.05 1777.06 1439.94 1770.21 1439C1763.33 1438.09 1756.84 1435.3 1751.44 1430.93C1746.8 1426.4 1742.78 1421.28 1739.47 1415.7C1730.62 1402.76 1719.65 1391.41 1707.02 1382.13C1707.35 1384.44 1707.82 1386.72 1708.41 1388.97C1720.56 1397.96 1731.07 1408.97 1739.47 1421.53C1742.79 1427.11 1746.81 1432.25 1751.44 1436.81C1756.85 1441.16 1763.33 1443.95 1770.21 1444.88C1777.07 1445.77 1784.01 1445.87 1790.89 1445.21C1794.08 1445.09 1797.23 1444.52 1800.25 1443.5C1801.77 1442.99 1803.17 1442.19 1804.37 1441.13C1805.58 1440.08 1806.55 1438.79 1807.25 1437.35C1808.14 1435.18 1808.28 1432.76 1807.62 1430.51C1807.52 1430.85 1807.4 1431.19 1807.25 1431.52V1431.52Z" fill="#263238"/>
<path d="M1804.41 1418.64C1801.25 1415.33 1797.65 1412.45 1793.72 1410.09C1776.31 1398.21 1763.32 1380.9 1756.79 1360.86L1707.72 1363.64C1705.54 1369.57 1705.3 1376.05 1707.02 1382.13C1719.65 1391.41 1730.62 1402.76 1739.47 1415.7C1742.78 1421.28 1746.8 1426.4 1751.44 1430.93C1756.84 1435.3 1763.33 1438.09 1770.2 1439C1777.06 1439.94 1784.01 1440.05 1790.89 1439.33C1794.07 1439.23 1797.22 1438.67 1800.25 1437.67C1801.77 1437.17 1803.17 1436.36 1804.37 1435.31C1805.58 1434.25 1806.55 1432.96 1807.25 1431.52C1807.4 1431.19 1807.52 1430.85 1807.62 1430.51C1808.09 1428.42 1808.04 1426.24 1807.48 1424.18C1806.92 1422.11 1805.87 1420.21 1804.41 1418.64V1418.64Z" fill="#37474F"/>
<path d="M1546.99 939.913C1536.29 991.763 1540.41 1014.75 1580.82 1052.16C1621.23 1089.58 1687.73 1143.03 1687.73 1143.03C1671.69 1195.79 1695.64 1265.23 1696.55 1292.01C1697.46 1318.79 1704.03 1364.06 1704.03 1364.06C1740.91 1383.84 1760.69 1364.06 1760.69 1364.06V1131.49C1760.71 1111.09 1753.32 1091.37 1739.9 1076L1659.24 984.012V949.695L1546.99 939.913Z" fill="#455A64"/>
<path d="M1831.3 803.127C1838.29 805.452 1845.75 805.985 1853 804.677C1853 790.672 1853 775.01 1854.13 754.645C1856.75 710.706 1844.88 686.492 1835.1 677.726C1825.31 668.96 1808.37 668.799 1802.12 674.358C1795.86 679.917 1811.2 700.123 1813.39 717.709C1804.63 707.446 1800.19 703.971 1792.01 710.225C1796.84 715.832 1800.48 722.361 1802.7 729.415C1804.47 738.235 1813.88 744.382 1816.49 751.651C1818.53 757.317 1816.49 775.438 1813.13 790.993C1818.06 796.512 1824.31 800.688 1831.3 803.127Z" fill="#F28F8F"/>
<path opacity="0.2" d="M1831.3 803.127C1838.29 805.452 1845.75 805.985 1853 804.677C1853 790.672 1853 775.01 1854.13 754.645C1856.75 710.706 1844.88 686.492 1835.1 677.726C1825.31 668.96 1808.37 668.799 1802.12 674.358C1795.86 679.917 1811.2 700.123 1813.39 717.709C1804.63 707.446 1800.19 703.971 1792.01 710.225C1796.84 715.832 1800.48 722.361 1802.7 729.415C1804.47 738.235 1813.88 744.382 1816.49 751.651C1818.53 757.317 1816.49 775.438 1813.13 790.993C1818.06 796.512 1824.31 800.688 1831.3 803.127Z" fill="black"/>
<path d="M1831.3 803.126C1824.26 800.711 1817.94 796.534 1812.97 790.992C1812 795.643 1810.94 800.079 1809.87 803.821C1809.87 803.821 1775.92 757.263 1768.28 748.444C1760.64 739.624 1753.63 718.617 1720.17 714.715L1724.18 796.819C1724.18 796.819 1791.59 873.524 1814.68 886.46C1837.77 899.395 1845.47 882.611 1850.17 851.555C1852.27 836.021 1853.17 820.348 1852.84 804.676C1845.65 805.958 1838.24 805.425 1831.3 803.126V803.126Z" fill="#455A64"/>
<path opacity="0.3" d="M1804.9 853.533C1799.55 834.45 1807.52 810.77 1810.24 803.821L1804.47 795.91C1800.24 804.94 1798.09 814.8 1798.16 824.77C1798.24 834.739 1800.54 844.566 1804.9 853.533V853.533Z" fill="black"/>
<path d="M1620.8 712.951C1601.45 710.332 1580.82 713.593 1559.71 717.12C1555.82 763.026 1555.82 809.178 1559.71 855.083L1542.98 944.724C1608.46 984.279 1691.95 966.693 1708.68 955.414C1735.03 852.624 1741.61 755.5 1720.33 714.875L1668.27 706.056L1620.8 712.951Z" fill="#37474F"/>
<path d="M1662.55 752.933L1647.26 740.8C1652.08 738.461 1657.08 736.547 1662.23 735.08L1668.27 738.073L1662.55 752.933Z" fill="#EF7A22"/>
<path d="M1678.96 751.651L1682.33 749.566L1687.99 737.272L1681.42 735.08L1677.52 738.073L1678.96 751.651Z" fill="#EF7A22"/>
<path d="M1666.67 761.38C1655.12 807.242 1601.35 837.123 1557.03 833.915C1550.75 833.332 1544.45 834.957 1539.23 838.512C1532.72 843.211 1526.94 848.849 1522.08 855.243C1521.44 856.099 1521.01 857.087 1520.81 858.134C1520.61 859.181 1520.65 860.259 1520.93 861.288C1521.21 862.316 1521.71 863.269 1522.41 864.073C1523.11 864.878 1523.98 865.514 1524.96 865.934C1534.77 869.867 1544.89 872.978 1555.22 875.235C1566 877.735 1577.24 877.441 1587.88 874.379C1668.43 851.074 1679.6 799.545 1677.41 761.326L1666.67 761.38Z" fill="#EF7A22"/>
<path opacity="0.3" d="M1677.52 763.411C1677.52 762.716 1677.52 762.021 1677.52 761.38H1666.83C1666.83 761.38 1666.83 761.808 1666.83 762.021C1668.35 763.29 1670.2 764.088 1672.17 764.32C1674 764.481 1675.84 764.168 1677.52 763.411Z" fill="black"/>
<path d="M1668.27 738.128C1671.33 737.647 1674.45 737.647 1677.52 738.128C1680.13 741.453 1681.79 745.425 1682.33 749.621C1681.54 753.86 1679.86 757.885 1677.41 761.434C1674.63 763.518 1666.72 761.434 1666.72 761.434C1664.68 758.734 1662.89 755.854 1661.37 752.828C1660.91 751.888 1660.67 750.855 1660.67 749.808C1660.67 748.76 1660.91 747.727 1661.37 746.788C1663.02 743.434 1665.37 740.478 1668.27 738.128V738.128Z" fill="#EF7A22"/>
<path opacity="0.3" d="M1697.4 971.396C1689.18 981.391 1677.65 988.106 1664.9 990.319L1692.11 1021.43C1689.25 1011.57 1684.65 1002.3 1678.53 994.061C1687.15 988.789 1693.78 980.822 1697.4 971.396V971.396Z" fill="black"/>
<path d="M1672.44 736.684C1684.84 733.37 1692.75 747.374 1692.75 747.374C1693.5 716.959 1677.73 705.307 1677.73 705.307L1672.44 736.684Z" fill="#455A64"/>
<path d="M1619.63 586.428C1614.28 582.739 1608.56 579.105 1603 575.47C1604.39 573.785 1606.14 572.431 1608.12 571.506C1610.1 570.582 1612.26 570.11 1614.44 570.124C1616.93 570.319 1619.25 571.468 1620.91 573.332C1622.53 575.252 1623.35 577.719 1623.21 580.227C1623.74 570.285 1632.3 561.358 1641.22 557.028C1650.42 553.111 1660.48 551.655 1670.41 552.806C1680.3 553.447 1690.13 555.371 1700.02 555.692C1711.49 556.125 1722.95 554.514 1733.86 550.935C1735.06 550.53 1736.35 550.461 1737.59 550.734C1738.83 551.008 1739.98 551.614 1740.9 552.487C1741.82 553.36 1742.49 554.468 1742.83 555.692C1743.17 556.916 1743.17 558.209 1742.84 559.434C1740.93 565.745 1737.72 571.589 1733.43 576.592C1735.72 577.245 1738.11 577.498 1740.49 577.341C1741.77 577.254 1743.06 577.524 1744.2 578.121C1745.34 578.718 1746.3 579.619 1746.96 580.724C1747.63 581.83 1747.97 583.097 1747.96 584.386C1747.95 585.676 1747.58 586.937 1746.9 588.031C1742.53 594.426 1736.38 599.39 1729.21 602.303C1702.85 643.89 1631.82 681.04 1631.82 681.04C1629.41 680.721 1627.12 679.826 1625.14 678.43C1623.15 677.033 1621.54 675.178 1620.43 673.022C1618.31 668.65 1616.96 663.95 1616.42 659.124C1613.36 640.914 1610.84 622.615 1608.88 604.227C1608.18 600.355 1608.35 596.376 1609.36 592.575C1609.92 590.75 1611.04 589.145 1612.55 587.986C1614.06 586.826 1615.9 586.169 1617.81 586.107" fill="#263238"/>
<path d="M1626.52 650.785C1624.6 667.944 1620.8 697.557 1620.8 697.557C1635.77 717.762 1664.74 722.199 1672.44 736.684C1677.41 720.593 1680.65 704.018 1682.11 687.24L1632.67 648.38L1626.52 650.785Z" fill="#F28F8F"/>
<path opacity="0.2" d="M1626.52 650.785C1624.6 667.944 1620.8 697.557 1620.8 697.557C1635.77 717.762 1664.74 722.199 1672.44 736.684C1677.41 720.593 1680.65 704.018 1682.11 687.24L1632.67 648.38L1626.52 650.785Z" fill="black"/>
<path opacity="0.3" d="M1632.67 648.38L1631.39 648.861C1630.77 662.68 1635.37 676.226 1644.29 686.804C1653.2 697.382 1665.77 704.217 1679.5 705.949C1681.47 694.35 1681.9 687.24 1681.9 687.24L1632.67 648.38Z" fill="black"/>
<path d="M1729.21 602.41C1732.93 630.984 1729.76 660.035 1719.96 687.133C1718.7 690.493 1716.44 693.386 1713.49 695.422C1710.54 697.458 1707.03 698.539 1703.44 698.519C1666.02 698.519 1636.3 685.69 1631.12 652.335C1629.23 654.737 1626.62 656.463 1623.67 657.253C1620.72 658.043 1617.6 657.856 1614.76 656.718C1609.45 654.268 1605.19 650.004 1602.74 644.691C1601.15 641.936 1600.1 638.908 1599.64 635.765C1599.18 632.584 1599.96 629.349 1601.83 626.731C1603.56 624.794 1605.87 623.451 1608.41 622.895C1610.95 622.339 1613.6 622.596 1615.99 623.631C1620.84 625.812 1624.67 629.773 1626.68 634.696C1627.48 636.513 1628.55 638.705 1630.53 638.758C1632.51 638.812 1633.74 636.513 1634.38 634.589C1636.75 626.746 1637.78 618.56 1637.43 610.375C1643.35 611.503 1649.49 610.337 1654.59 607.114C1659.53 603.72 1662.98 598.551 1664.21 592.682C1665.79 595.694 1668.08 598.285 1670.87 600.237C1673.65 602.19 1676.87 603.448 1680.24 603.907C1683.53 604.355 1686.87 604.011 1689.99 602.905C1693.12 601.798 1695.93 599.961 1698.2 597.546C1702.06 601.482 1707.08 604.069 1712.53 604.922C1718.21 605.71 1724.01 604.837 1729.21 602.41Z" fill="#F28F8F"/>
<path opacity="0.2" d="M1729.21 602.41C1732.93 630.984 1729.76 660.035 1719.96 687.133C1718.7 690.493 1716.44 693.386 1713.49 695.422C1710.54 697.458 1707.03 698.539 1703.44 698.519C1666.02 698.519 1636.3 685.69 1631.12 652.335C1629.23 654.737 1626.62 656.463 1623.67 657.253C1620.72 658.043 1617.6 657.856 1614.76 656.718C1609.45 654.268 1605.19 650.004 1602.74 644.691C1601.15 641.936 1600.1 638.908 1599.64 635.765C1599.18 632.584 1599.96 629.349 1601.83 626.731C1603.56 624.794 1605.87 623.451 1608.41 622.895C1610.95 622.339 1613.6 622.596 1615.99 623.631C1620.84 625.812 1624.67 629.773 1626.68 634.696C1627.48 636.513 1628.55 638.705 1630.53 638.758C1632.51 638.812 1633.74 636.513 1634.38 634.589C1636.75 626.746 1637.78 618.56 1637.43 610.375C1643.35 611.503 1649.49 610.337 1654.59 607.114C1659.53 603.72 1662.98 598.551 1664.21 592.682C1665.79 595.694 1668.08 598.285 1670.87 600.237C1673.65 602.19 1676.87 603.448 1680.24 603.907C1683.53 604.355 1686.87 604.011 1689.99 602.905C1693.12 601.798 1695.93 599.961 1698.2 597.546C1702.06 601.482 1707.08 604.069 1712.53 604.922C1718.21 605.71 1724.01 604.837 1729.21 602.41Z" fill="black"/>
<path d="M1695.05 634.803L1712.21 656.451L1695.96 661.85L1695.05 634.803Z" fill="#F28F8F"/>
<path opacity="0.3" d="M1695.05 634.803L1712.21 656.451L1695.96 661.85L1695.05 634.803Z" fill="black"/>
<path d="M1680.99 672.113L1694.52 676.55C1693.62 678.139 1692.24 679.395 1690.57 680.128C1688.9 680.861 1687.04 681.031 1685.27 680.612C1683.69 679.895 1682.41 678.662 1681.63 677.116C1680.86 675.57 1680.63 673.805 1680.99 672.113V672.113Z" fill="#F28F8F"/>
<path opacity="0.3" d="M1680.99 672.113L1694.52 676.55C1693.62 678.139 1692.24 679.395 1690.57 680.128C1688.9 680.861 1687.04 681.031 1685.27 680.612C1683.69 679.895 1682.41 678.662 1681.63 677.116C1680.86 675.57 1680.63 673.805 1680.99 672.113V672.113Z" fill="black"/>
<path d="M1689.7 680.398C1688.26 680.824 1686.72 680.824 1685.27 680.398C1684.02 679.887 1682.95 679.023 1682.19 677.911C1681.43 676.8 1681.02 675.49 1680.99 674.144C1682.84 673.879 1684.73 674.256 1686.34 675.213C1687.21 675.814 1687.96 676.581 1688.54 677.471C1689.11 678.36 1689.51 679.355 1689.7 680.398Z" fill="#F28F8F"/>
<path d="M1671.26 639.025C1671.28 639.659 1671.42 640.284 1671.68 640.863C1671.93 641.442 1672.31 641.964 1672.77 642.397C1673.23 642.83 1673.78 643.167 1674.37 643.386C1674.97 643.606 1675.6 643.704 1676.23 643.675C1677.2 643.653 1678.14 643.344 1678.93 642.787C1679.72 642.229 1680.32 641.45 1680.67 640.547C1681.01 639.644 1681.08 638.659 1680.86 637.717C1680.64 636.776 1680.15 635.92 1679.45 635.26C1678.74 634.6 1677.85 634.165 1676.9 634.011C1675.95 633.856 1674.97 633.99 1674.09 634.394C1673.21 634.797 1672.47 635.454 1671.97 636.279C1671.47 637.103 1671.22 638.06 1671.26 639.025V639.025Z" fill="#263238"/>
<path d="M1711.51 636.086C1711.58 637.362 1712.15 638.561 1713.08 639.429C1714.02 640.297 1715.26 640.766 1716.54 640.736C1717.5 640.704 1718.43 640.385 1719.22 639.822C1720 639.259 1720.59 638.476 1720.93 637.572C1721.27 636.669 1721.33 635.686 1721.1 634.748C1720.88 633.81 1720.38 632.96 1719.68 632.305C1718.97 631.65 1718.08 631.22 1717.13 631.07C1716.18 630.92 1715.2 631.056 1714.33 631.461C1713.45 631.866 1712.72 632.522 1712.22 633.346C1711.72 634.169 1711.47 635.123 1711.51 636.086V636.086Z" fill="#263238"/>
<path d="M1715.58 616.683L1726.53 623.738C1726.96 622.393 1726.96 620.948 1726.54 619.6C1726.12 618.252 1725.3 617.066 1724.18 616.202C1722.84 615.479 1721.33 615.141 1719.81 615.226C1718.29 615.311 1716.83 615.815 1715.58 616.683Z" fill="#263238"/>
<path d="M1674.2 617.537L1663.51 625.287C1663.01 623.975 1662.92 622.539 1663.25 621.172C1663.58 619.806 1664.33 618.575 1665.38 617.644C1666.68 616.772 1668.21 616.298 1669.78 616.279C1671.34 616.26 1672.88 616.697 1674.2 617.537V617.537Z" fill="#263238"/>
<path d="M1620.8 697.557L1621.77 689.966C1621.13 689.882 1620.48 689.882 1619.84 689.966C1614.5 692.799 1604.71 708.247 1604.71 708.247C1608.19 716.479 1624.92 742.083 1638.07 751.01C1653.3 743.366 1664.31 732.675 1672.44 736.577C1669.29 718.884 1620.8 697.557 1620.8 697.557Z" fill="#455A64"/>
<path d="M1591.08 979.094C1627.7 927.78 1708.25 808.953 1703.33 711.829L1719.96 714.609C1726.85 810.236 1651.06 934.942 1598.3 999.62L1591.08 979.094Z" fill="#263238"/>
<path d="M1579.75 1019.82L1468.14 925.641L1448.42 995.13C1448.3 995.573 1448.3 996.037 1448.4 996.483C1448.5 996.93 1448.71 997.345 1449.01 997.695L1449.38 998.016L1559.6 1096.58C1559.23 1096.21 1558.96 1095.75 1558.83 1095.24C1558.7 1094.73 1558.71 1094.2 1558.85 1093.7L1579.75 1019.82Z" fill="#EF7A22"/>
<path opacity="0.15" d="M1579.75 1019.82L1468.14 925.641L1448.42 995.13C1448.3 995.573 1448.3 996.037 1448.4 996.483C1448.5 996.93 1448.71 997.345 1449.01 997.695L1449.38 998.016L1559.6 1096.58C1559.23 1096.21 1558.96 1095.75 1558.83 1095.24C1558.7 1094.73 1558.71 1094.2 1558.85 1093.7L1579.75 1019.82Z" fill="black"/>
<path d="M1574.94 1036.82L1592.47 974.925L1574.94 1036.82Z" fill="#EF7A22"/>
<path d="M1604.5 968.457L1604.45 968.403L1604.5 968.51V968.457Z" fill="#EF7A22"/>
<path d="M1559.55 1096.96H1559.6L1559.49 1096.91L1559.55 1096.96Z" fill="#EF7A22"/>
<path d="M1605.62 971.77C1605.7 971.177 1605.64 970.575 1605.44 970.009C1605.25 969.444 1604.92 968.931 1604.5 968.51V968.51C1604.06 968.092 1603.52 967.783 1602.94 967.607C1602.35 967.431 1601.73 967.392 1601.13 967.494V967.494C1599.14 967.833 1597.28 968.732 1595.78 970.085C1594.27 971.438 1593.18 973.19 1592.63 975.138L1575.05 1036.82L1559.01 1094.02C1558.87 1094.52 1558.86 1095.06 1558.99 1095.56C1559.12 1096.07 1559.39 1096.53 1559.76 1096.9V1096.9C1560.12 1097.27 1560.58 1097.52 1561.08 1097.64C1561.58 1097.77 1562.1 1097.75 1562.59 1097.6L1584.46 1090.97C1586.1 1090.49 1587.56 1089.54 1588.67 1088.24C1589.78 1086.94 1590.49 1085.34 1590.71 1083.65L1605.62 971.77Z" fill="#EF7A22"/>
<path opacity="0.3" d="M1605.62 971.77C1605.7 971.177 1605.64 970.575 1605.44 970.009C1605.25 969.444 1604.92 968.931 1604.5 968.51V968.51C1604.06 968.092 1603.52 967.783 1602.94 967.607C1602.35 967.431 1601.73 967.392 1601.13 967.494V967.494C1599.14 967.833 1597.28 968.732 1595.78 970.085C1594.27 971.438 1593.18 973.19 1592.63 975.138L1575.05 1036.82L1559.01 1094.02C1558.87 1094.52 1558.86 1095.06 1558.99 1095.56C1559.12 1096.07 1559.39 1096.53 1559.76 1096.9V1096.9C1560.12 1097.27 1560.58 1097.52 1561.08 1097.64C1561.58 1097.77 1562.1 1097.75 1562.59 1097.6L1584.46 1090.97C1586.1 1090.49 1587.56 1089.54 1588.67 1088.24C1589.78 1086.94 1590.49 1085.34 1590.71 1083.65L1605.62 971.77Z" fill="black"/>
<path d="M1540.52 979.682L1520.74 1050.56L1523.84 1053.55L1542.98 983.21L1540.52 979.682Z" fill="#EF7A22"/>
<path d="M1498.56 942.158L1478.83 1013.09L1481.93 1016.08L1501.07 945.74L1498.56 942.158Z" fill="#EF7A22"/>
<path d="M1493.91 869.676C1493.47 869.283 1492.95 868.993 1492.38 868.827C1491.82 868.66 1491.23 868.622 1490.65 868.714C1488.65 869.053 1486.79 869.951 1485.29 871.304C1483.78 872.658 1482.69 874.41 1482.15 876.358L1467.02 929.811C1466.14 932.972 1466.18 936.316 1467.13 939.456C1468.07 942.597 1469.89 945.405 1472.36 947.557L1484.02 957.66L1563.34 1026.77C1564.58 1027.86 1566.07 1028.61 1567.67 1028.95C1569.28 1029.3 1570.95 1029.24 1572.52 1028.77C1574.1 1028.3 1575.53 1027.44 1576.68 1026.27C1577.83 1025.1 1578.67 1023.65 1579.11 1022.07L1592.47 975.032C1593.02 973.084 1594.11 971.332 1595.62 969.979C1597.12 968.626 1598.98 967.727 1600.97 967.388C1601.57 967.286 1602.19 967.325 1602.78 967.501C1603.36 967.677 1603.89 967.986 1604.34 968.404L1493.91 869.676Z" fill="#EF7A22"/>
<path opacity="0.2" d="M1493.91 869.676C1493.47 869.283 1492.95 868.993 1492.38 868.827C1491.82 868.66 1491.23 868.622 1490.65 868.714C1488.65 869.053 1486.79 869.951 1485.29 871.304C1483.78 872.658 1482.69 874.41 1482.15 876.358L1467.02 929.811C1466.14 932.972 1466.18 936.316 1467.13 939.456C1468.07 942.597 1469.89 945.405 1472.36 947.557L1484.02 957.66L1563.34 1026.77C1564.58 1027.86 1566.07 1028.61 1567.67 1028.95C1569.28 1029.3 1570.95 1029.24 1572.52 1028.77C1574.1 1028.3 1575.53 1027.44 1576.68 1026.27C1577.83 1025.1 1578.67 1023.65 1579.11 1022.07L1592.47 975.032C1593.02 973.084 1594.11 971.332 1595.62 969.979C1597.12 968.626 1598.98 967.727 1600.97 967.388C1601.57 967.286 1602.19 967.325 1602.78 967.501C1603.36 967.677 1603.89 967.986 1604.34 968.404L1493.91 869.676Z" fill="white"/>
<path d="M1425.38 874.86L1428.96 928.901C1436.6 982.782 1446.55 991.281 1471.19 998.39C1495.83 1005.5 1481.4 974.71 1478.19 968.991C1475.83 963.889 1474.16 958.496 1473.22 952.955C1485.35 963.966 1488.45 962.79 1493.26 959.423C1495.19 957.926 1486.1 950.015 1486.1 950.015C1481.29 939.665 1475.02 930.054 1467.5 921.471L1470.33 874.753L1425.38 874.86Z" fill="#F28F8F"/>
<path opacity="0.2" d="M1425.38 874.86L1428.96 928.901C1436.6 982.782 1446.55 991.281 1471.19 998.39C1495.83 1005.5 1481.4 974.71 1478.19 968.991C1475.83 963.889 1474.16 958.496 1473.22 952.955C1485.35 963.966 1488.45 962.79 1493.26 959.423C1495.19 957.926 1486.1 950.015 1486.1 950.015C1481.29 939.665 1475.02 930.054 1467.5 921.471L1470.33 874.753L1425.38 874.86Z" fill="black"/>
<path d="M1585.74 713.272C1551.05 707.446 1528.22 724.925 1512.4 735.081C1500.96 742.458 1458.95 774.102 1436.6 791.047C1432.18 794.403 1428.62 798.759 1426.2 803.757C1423.79 808.755 1422.59 814.254 1422.71 819.804L1423.94 876.946C1431.32 880.834 1439.59 882.703 1447.93 882.366C1456.26 882.028 1464.36 879.494 1471.4 875.021L1475.46 833.114C1475.46 833.114 1524.21 809.381 1556.98 794.468C1589.75 779.554 1593.7 737.701 1585.74 713.272Z" fill="#455A64"/>
<path opacity="0.1" d="M1443.98 1424.79C1435.02 1421.78 1425.63 1420.26 1416.19 1420.3C1386.36 1420.3 1362.2 1434.14 1362.2 1451.19C1362.2 1468.24 1386.36 1482.14 1416.19 1482.14C1425.64 1482.19 1435.03 1480.65 1443.98 1477.6V1424.79Z" fill="black"/>
<path opacity="0.1" d="M2752.14 1295.7C2829.38 1340.33 2829.75 1412.6 2753.05 1457.23C2676.34 1501.87 2551.48 1501.81 2474.24 1457.23C2397 1412.65 2396.57 1340.33 2473.33 1295.7C2550.09 1251.06 2674.9 1251.28 2752.14 1295.7Z" fill="black"/>
<path d="M2850.44 790.459L2841.89 786.236C2861.13 800.241 2894.22 875.663 2906.56 906.345C2906.72 906.742 2907.03 907.061 2907.42 907.231C2907.81 907.402 2908.25 907.41 2908.65 907.254C2909.05 907.098 2909.36 906.791 2909.53 906.4C2909.71 906.009 2909.71 905.566 2909.56 905.169C2905.44 894.906 2874.28 817.72 2850.44 790.459Z" fill="#E0E0E0"/>
<path d="M2717.45 1321.84L2725.09 1308.74L2715.15 1302.43C2713.4 1301.57 2711.45 1301.21 2709.51 1301.38C2707.57 1301.55 2705.71 1302.25 2704.14 1303.39C2699.69 1306.26 2695.99 1310.15 2693.34 1314.73C2690.69 1319.31 2689.17 1324.46 2688.9 1329.75C2688.69 1331.68 2689.02 1333.63 2689.86 1335.38C2690.7 1337.13 2692.02 1338.6 2693.66 1339.64V1339.64L2703.39 1345.84L2711.46 1332.04C2714 1328.99 2716.02 1325.54 2717.45 1321.84V1321.84Z" fill="#37474F"/>
<path d="M2714.08 1309.65C2722.47 1304.78 2729.37 1308.69 2729.37 1318.41C2729.09 1323.7 2727.57 1328.84 2724.92 1333.42C2722.27 1338 2718.57 1341.89 2714.13 1344.77C2705.74 1349.63 2698.85 1345.73 2698.85 1336.05C2699.12 1330.76 2700.64 1325.61 2703.29 1321.02C2705.94 1316.43 2709.64 1312.54 2714.08 1309.65V1309.65Z" fill="#455A64"/>
<path d="M2550.62 1318.09L2542.98 1305L2552.92 1298.69C2554.67 1297.83 2556.62 1297.47 2558.56 1297.64C2560.5 1297.81 2562.36 1298.5 2563.93 1299.65C2568.37 1302.53 2572.07 1306.42 2574.72 1311C2577.36 1315.58 2578.89 1320.72 2579.16 1326.01C2579.38 1327.93 2579.05 1329.89 2578.21 1331.63C2577.37 1333.38 2576.05 1334.86 2574.41 1335.89V1335.89L2564.68 1342.15L2556.61 1328.36C2554.07 1325.28 2552.04 1321.82 2550.62 1318.09V1318.09Z" fill="#37474F"/>
<path d="M2554.04 1305.96C2545.6 1301.1 2538.7 1304.94 2538.7 1314.67C2538.97 1319.96 2540.5 1325.1 2543.15 1329.68C2545.8 1334.26 2549.49 1338.15 2553.93 1341.03C2562.33 1345.89 2569.22 1341.99 2569.22 1332.31C2568.95 1327.03 2567.44 1321.89 2564.8 1317.31C2562.16 1312.73 2558.47 1308.84 2554.04 1305.96V1305.96Z" fill="#455A64"/>
<path d="M2605.36 1285.65H2633.69V1334.45C2633.57 1335.71 2633.13 1336.91 2632.4 1337.93C2631.66 1338.96 2630.67 1339.77 2629.52 1340.28C2626.41 1341.86 2622.98 1342.68 2619.49 1342.68C2616.01 1342.68 2612.58 1341.86 2609.47 1340.28C2608.33 1339.76 2607.34 1338.95 2606.62 1337.93C2605.89 1336.9 2605.46 1335.7 2605.36 1334.45V1334.45V1285.65Z" fill="#EBEBEB"/>
<path d="M2707.93 1299.33V1310.93L2633.69 1329.69V1305.05L2707.93 1299.33Z" fill="#E0E0E0"/>
<path d="M2707.93 1299.33L2702.75 1297.57L2633.69 1301.2V1305.05L2707.93 1299.33Z" fill="#F5F5F5"/>
<path d="M2715.42 1404.85L2707.72 1391.75L2717.66 1385.44C2719.41 1384.57 2721.37 1384.19 2723.32 1384.35C2725.27 1384.51 2727.14 1385.2 2728.73 1386.35C2733.16 1389.25 2736.85 1393.15 2739.5 1397.73C2742.15 1402.32 2743.68 1407.47 2743.96 1412.76C2744.13 1414.68 2743.78 1416.62 2742.95 1418.36C2742.11 1420.1 2740.82 1421.58 2739.2 1422.65V1422.65L2729.63 1428.9L2721.56 1415.11C2718.96 1412.05 2716.89 1408.58 2715.42 1404.85V1404.85Z" fill="#37474F"/>
<path d="M2718.94 1392.66C2710.5 1387.8 2703.66 1391.7 2703.6 1401.37C2703.91 1406.65 2705.46 1411.79 2708.13 1416.36C2710.79 1420.93 2714.5 1424.8 2718.94 1427.67C2727.39 1432.54 2734.23 1428.63 2734.29 1418.91C2733.97 1413.63 2732.42 1408.51 2729.75 1403.95C2727.08 1399.39 2723.38 1395.52 2718.94 1392.66V1392.66Z" fill="#455A64"/>
<path d="M2616.53 1438.36L2624.17 1425.27L2614.23 1418.96C2612.48 1418.08 2610.52 1417.7 2608.57 1417.86C2606.62 1418.03 2604.75 1418.72 2603.16 1419.87C2598.74 1422.76 2595.05 1426.65 2592.41 1431.23C2589.76 1435.81 2588.23 1440.94 2587.93 1446.22C2587.75 1448.15 2588.09 1450.1 2588.93 1451.85C2589.77 1453.6 2591.07 1455.09 2592.69 1456.16L2602.47 1462.36L2610.54 1448.57C2613.06 1445.5 2615.08 1442.06 2616.53 1438.36V1438.36Z" fill="#37474F"/>
<path d="M2613.11 1425.96C2621.55 1421.1 2628.39 1425 2628.45 1434.68C2628.16 1439.96 2626.63 1445.1 2623.98 1449.67C2621.34 1454.25 2617.65 1458.14 2613.21 1461.03C2604.77 1465.89 2597.93 1461.99 2597.87 1452.31C2598.16 1447.03 2599.69 1441.89 2602.34 1437.32C2604.98 1432.74 2608.67 1428.85 2613.11 1425.96V1425.96Z" fill="#455A64"/>
<path d="M2509.3 1386.67L2516.94 1373.58L2507 1367.27C2505.26 1366.41 2503.31 1366.03 2501.37 1366.19C2499.43 1366.35 2497.57 1367.04 2495.99 1368.18C2491.55 1371.05 2487.85 1374.94 2485.2 1379.52C2482.56 1384.1 2481.03 1389.25 2480.76 1394.53C2480.57 1396.47 2480.92 1398.41 2481.76 1400.16C2482.59 1401.92 2483.89 1403.41 2485.51 1404.47L2495.24 1410.67L2503.31 1396.88C2505.85 1393.83 2507.87 1390.38 2509.3 1386.67V1386.67Z" fill="#37474F"/>
<path d="M2505.93 1374.54C2514.33 1369.68 2521.22 1373.58 2521.22 1383.25C2520.94 1388.53 2519.42 1393.67 2516.79 1398.25C2514.15 1402.83 2510.47 1406.72 2506.04 1409.6C2497.6 1414.47 2490.7 1410.57 2490.7 1400.89C2490.97 1395.61 2492.5 1390.46 2495.15 1385.88C2497.79 1381.3 2501.49 1377.41 2505.93 1374.54V1374.54Z" fill="#455A64"/>
<path d="M2725.79 1376.46V1395.33L2626.36 1341.61V1315.58L2725.79 1376.46Z" fill="#E0E0E0"/>
<path d="M2731.56 1373.26L2632.08 1314.14L2626.36 1315.58L2725.79 1376.46L2731.56 1373.26Z" fill="#F5F5F5"/>
<path d="M2731.56 1392.07L2725.79 1395.33V1376.46L2731.56 1373.26V1392.07Z" fill="#F0F0F0"/>
<path d="M2619.68 1315.58L2607.55 1411.69V1428.9L2619.68 1342.68V1315.58Z" fill="#E0E0E0"/>
<path d="M2607.55 1411.74H2600.55V1428.9H2607.55V1411.74Z" fill="#F0F0F0"/>
<path d="M2600.55 1411.69L2611.56 1315.58H2619.68L2607.55 1411.69H2600.55Z" fill="#F5F5F5"/>
<path d="M2501.98 1358.45V1376.46L2605.36 1334.45V1312.37L2501.98 1358.45Z" fill="#E0E0E0"/>
<path d="M2497.97 1373.79L2501.98 1376.46V1358.45L2497.97 1355.83V1373.79Z" fill="#F0F0F0"/>
<path d="M2514.27 1352.95L2501.98 1358.45L2497.97 1355.83L2605.36 1307.46V1312.37L2514.27 1352.95Z" fill="#F5F5F5"/>
<path d="M2553.03 1289.5V1301.31L2583.17 1317.45L2605.36 1307.46V1302.59L2553.03 1289.5Z" fill="#E0E0E0"/>
<path d="M2553.03 1289.5L2555.43 1288.53L2605.36 1299.33V1302.59L2553.03 1289.5Z" fill="#F5F5F5"/>
<path d="M2596.32 1198.57H2642.72V1278.75C2642.5 1280.79 2641.74 1282.74 2640.53 1284.4C2639.32 1286.06 2637.7 1287.38 2635.82 1288.21C2630.75 1290.79 2625.14 1292.14 2619.44 1292.14C2613.75 1292.14 2608.13 1290.79 2603.06 1288.21C2601.2 1287.36 2599.59 1286.03 2598.41 1284.36C2597.23 1282.69 2596.51 1280.74 2596.32 1278.7V1278.7V1198.57Z" fill="#E0E0E0"/>
<path d="M2895.34 837.39C2892.51 837.444 2889.69 837.01 2887 836.107L2883.79 835.145L2886.31 825.898L2880 818.307C2875.35 816.776 2870.57 815.667 2865.73 814.993C2851.03 813.016 2834.72 816.383 2824.67 827.341C2814.63 838.299 2812.75 853.426 2812.33 867.858C2811.58 892.661 2814.63 917.356 2816.12 942.158C2818.47 966.943 2816.55 991.946 2810.46 1016.08C2803.45 1039.87 2789.07 1062.32 2767.16 1074.29C2758.51 1078.85 2749.29 1082.21 2739.74 1084.29L2663.94 1024.42L2559.44 991.549L2422.55 1061.79C2418.98 1063.88 2415.96 1066.8 2413.73 1070.29C2403.04 1086.32 2404.91 1115.29 2423.72 1126.04L2612.68 1226.37C2618.93 1229.69 2625.89 1231.46 2632.97 1231.53C2640.04 1231.61 2647.04 1229.98 2653.36 1226.8L2785.71 1159.77C2794.08 1155.52 2801.47 1149.56 2807.4 1142.28C2813.33 1134.99 2817.67 1126.55 2820.13 1117.48L2895.93 837.497L2895.34 837.39Z" fill="#37474F"/>
<path d="M2422.55 1061.63L2559.44 991.389L2663.94 1024.26L2739.74 1084.13C2733.86 1085.57 2727.87 1086.75 2721.99 1087.92C2706.3 1090.2 2691.14 1095.23 2677.2 1102.78C2663.73 1111.07 2652.88 1125.24 2652.77 1141.06L2657.58 1178.47L2653.36 1180.56C2647.04 1183.77 2640.05 1185.41 2632.97 1185.34C2625.89 1185.28 2618.93 1183.51 2612.68 1180.18L2423.72 1079.85C2419.7 1077.5 2416.27 1074.25 2413.73 1070.34C2415.93 1066.77 2418.95 1063.78 2422.55 1061.63V1061.63Z" fill="#455A64"/>
<path opacity="0.1" d="M2422.55 1061.63L2559.44 991.389L2663.94 1024.26L2739.74 1084.13C2733.86 1085.57 2727.87 1086.75 2721.99 1087.92C2706.3 1090.2 2691.14 1095.23 2677.2 1102.78C2663.73 1111.07 2652.88 1125.24 2652.77 1141.06L2657.58 1178.47L2653.36 1180.56C2647.04 1183.77 2640.05 1185.41 2632.97 1185.34C2625.89 1185.28 2618.93 1183.51 2612.68 1180.18L2423.72 1079.85C2419.7 1077.5 2416.27 1074.25 2413.73 1070.34C2415.93 1066.77 2418.95 1063.78 2422.55 1061.63V1061.63Z" fill="black"/>
<path d="M2442.43 944.19C2442.43 944.19 2552.33 976.261 2581.41 947.985C2617.6 912.492 2602.42 823.011 2598.14 788C2593.86 752.988 2598.14 728.72 2607.81 718.511C2617.49 708.301 2631.55 693.174 2677.3 712.043C2631.28 735.723 2645.23 856.954 2659.61 902.175C2623.53 939.272 2606.16 988.288 2605.57 1015.01C2605.57 1015.01 2511.65 1037.95 2462.64 1064.83L2442.43 944.19Z" fill="#455A64"/>
<path opacity="0.1" d="M2442.43 944.19C2442.43 944.19 2552.33 976.261 2581.41 947.985C2617.6 912.492 2602.42 823.011 2598.14 788C2593.86 752.988 2598.14 728.72 2607.81 718.511C2617.49 708.301 2631.55 693.174 2677.3 712.043C2631.28 735.723 2637.32 856.954 2651.86 902.175C2615.78 939.272 2606.26 988.288 2605.57 1015.01C2605.57 1015.01 2511.65 1037.95 2462.64 1064.83L2442.43 944.19Z" fill="white"/>
<path d="M2462.37 1064.83L2439.87 1052.7C2439.87 990.907 2430.78 997.001 2413.73 972.52C2396.68 948.038 2422.81 933.231 2442.43 943.976C2462.05 954.72 2470.07 987.379 2462.37 1064.83Z" fill="#455A64"/>
<path opacity="0.2" d="M2462.37 1064.83L2439.87 1052.7C2439.87 990.907 2430.78 997.001 2413.73 972.52C2396.68 948.038 2422.81 933.231 2442.43 943.976C2462.05 954.72 2470.07 987.379 2462.37 1064.83Z" fill="white"/>
<path d="M2677.04 712.043C2677.04 712.043 2799.98 765.496 2860.06 795.002L2855.68 816.864L2659.34 727.705C2663.98 721.21 2670.03 715.854 2677.04 712.043V712.043Z" fill="#455A64"/>
<path opacity="0.1" d="M2677.04 712.043C2677.04 712.043 2799.98 765.496 2860.06 795.002L2855.68 816.864L2659.34 727.705C2663.98 721.21 2670.03 715.854 2677.04 712.043V712.043Z" fill="white"/>
<path d="M2639.62 893.623C2627.17 854.977 2629.73 767.314 2659.34 727.919L2855.68 817.079L2810.83 1041.96L2739.74 1084.34L2605.3 1015.02C2606 988.289 2603.54 930.56 2639.62 893.623Z" fill="#455A64"/>
<path d="M2761.12 938.685C2757.8 936.76 2755.08 938.31 2755.08 942.159C2755.18 944.238 2755.78 946.262 2756.82 948.065C2757.86 949.868 2759.32 951.398 2761.06 952.529C2764.38 954.453 2767.11 952.957 2767.11 949.108C2767.01 947.02 2766.41 944.985 2765.37 943.172C2764.33 941.359 2762.87 939.821 2761.12 938.685V938.685Z" fill="#455A64"/>
<path d="M2730.76 920.831C2727.39 918.907 2724.72 920.457 2724.66 924.306C2724.79 926.386 2725.4 928.409 2726.45 930.21C2727.5 932.011 2728.96 933.541 2730.7 934.676C2734.02 936.6 2736.74 935.103 2736.74 931.255C2736.63 929.169 2736.03 927.139 2734.99 925.328C2733.95 923.518 2732.5 921.977 2730.76 920.831V920.831Z" fill="#455A64"/>
<path d="M2700.34 902.978C2697.03 901.053 2694.3 902.603 2694.3 906.452C2694.42 908.529 2695.02 910.55 2696.06 912.351C2697.1 914.153 2698.55 915.684 2700.29 916.822C2703.66 918.746 2706.33 917.25 2706.38 913.401C2706.26 911.312 2705.65 909.28 2704.6 907.47C2703.55 905.66 2702.09 904.121 2700.34 902.978Z" fill="#455A64"/>
<path d="M2669.98 885.124C2666.61 883.2 2663.94 884.75 2663.94 888.599C2664.05 890.677 2664.64 892.702 2665.69 894.504C2666.73 896.307 2668.18 897.837 2669.93 898.968C2673.24 900.893 2675.97 899.396 2675.97 895.547C2675.86 893.462 2675.26 891.432 2674.22 889.621C2673.18 887.811 2671.73 886.27 2669.98 885.124V885.124Z" fill="#455A64"/>
<g opacity="0.2">
<path opacity="0.2" d="M2761.12 938.685C2757.8 936.76 2755.08 938.31 2755.08 942.159C2755.18 944.238 2755.78 946.262 2756.82 948.065C2757.86 949.868 2759.32 951.398 2761.07 952.529C2764.38 954.453 2767.11 952.957 2767.11 949.108C2767.01 947.02 2766.41 944.985 2765.37 943.172C2764.33 941.359 2762.87 939.821 2761.12 938.685V938.685Z" fill="white"/>
<path opacity="0.2" d="M2730.76 920.831C2727.39 918.907 2724.72 920.457 2724.66 924.306C2724.79 926.386 2725.4 928.409 2726.45 930.21C2727.5 932.011 2728.96 933.541 2730.7 934.676C2734.02 936.6 2736.74 935.103 2736.74 931.255C2736.63 929.169 2736.03 927.139 2734.99 925.328C2733.95 923.518 2732.5 921.977 2730.76 920.831V920.831Z" fill="white"/>
<path opacity="0.2" d="M2700.34 902.978C2697.03 901.053 2694.3 902.603 2694.3 906.452C2694.42 908.529 2695.02 910.55 2696.06 912.351C2697.1 914.153 2698.55 915.684 2700.29 916.822C2703.66 918.746 2706.33 917.25 2706.38 913.401C2706.26 911.312 2705.65 909.28 2704.6 907.47C2703.55 905.66 2702.09 904.121 2700.34 902.978Z" fill="white"/>
<path opacity="0.2" d="M2669.98 885.124C2666.61 883.2 2663.94 884.75 2663.94 888.599C2664.05 890.677 2664.64 892.702 2665.69 894.504C2666.73 896.307 2668.18 897.837 2669.93 898.968C2673.24 900.893 2675.97 899.396 2675.97 895.547C2675.86 893.462 2675.26 891.432 2674.22 889.621C2673.18 887.811 2671.73 886.27 2669.98 885.124V885.124Z" fill="white"/>
</g>
<path d="M2677.2 1102.78C2691.14 1095.23 2706.3 1090.2 2721.99 1087.92C2727.87 1086.75 2733.86 1085.57 2739.74 1084.13C2749.29 1082.05 2758.51 1078.69 2767.16 1074.13C2788.86 1062.16 2803.45 1039.71 2810.46 1015.92C2816.54 991.82 2818.45 966.854 2816.12 942.105C2814.62 917.303 2811.58 892.607 2812.33 867.805C2812.75 853.373 2814.95 837.925 2824.67 827.287C2834.4 816.65 2851.03 812.962 2865.73 814.94C2870.57 815.613 2875.35 816.722 2880 818.254L2886.52 825.898L2884.01 835.145L2820.13 1071.03C2815.71 1087.42 2805.21 1101.5 2790.78 1110.43C2789.13 1111.44 2787.47 1112.46 2785.71 1113.31L2657.42 1178.26L2652.61 1140.84C2652.88 1125.23 2663.73 1111.07 2677.2 1102.78Z" fill="#37474F"/>
<path d="M2677.04 1077.39C2723.92 1064.03 2769.94 1062.32 2786.94 1028.65C2803.93 994.97 2805.11 948.465 2796.61 867.698C2795.56 857.284 2795.81 846.78 2797.36 836.428C2802.38 806.227 2820.56 793.291 2841.46 792.97C2862.15 792.61 2882.2 800.14 2897.53 814.031C2900.51 816.515 2902.88 819.64 2904.48 823.171C2905.22 824.912 2905.49 826.819 2905.26 828.697C2905.02 830.576 2904.29 832.358 2903.14 833.862C2901.24 835.833 2898.66 837 2895.93 837.123H2895.34C2892.51 837.177 2889.69 836.743 2887 835.84L2883.79 834.878C2878.07 833.06 2872.41 830.922 2866.58 829.532C2859.6 827.474 2852.18 827.474 2845.2 829.532C2841.92 830.822 2838.99 832.863 2836.64 835.489C2834.29 838.116 2832.59 841.257 2831.68 844.66C2811.9 909.231 2837.02 978.613 2814.73 1031.75C2796.56 1080.23 2733.7 1100.38 2689.38 1114.76C2693.7 1113.06 2697.51 1110.28 2700.45 1106.69C2702.66 1103.27 2703.68 1099.22 2703.36 1095.16C2703.05 1091.11 2701.4 1087.27 2698.69 1084.24C2695.9 1081.42 2692.48 1079.33 2688.71 1078.14C2684.94 1076.95 2680.93 1076.69 2677.04 1077.39V1077.39Z" fill="#455A64"/>
<path opacity="0.1" d="M2677.04 1077.39C2723.92 1064.03 2769.94 1062.32 2786.94 1028.65C2803.93 994.97 2805.11 948.465 2796.61 867.698C2795.56 857.284 2795.81 846.78 2797.36 836.428C2802.38 806.227 2820.56 793.291 2841.46 792.97C2862.15 792.61 2882.2 800.14 2897.53 814.031C2900.51 816.515 2902.88 819.64 2904.48 823.171C2905.22 824.912 2905.49 826.819 2905.26 828.697C2905.02 830.576 2904.29 832.358 2903.14 833.862C2901.24 835.833 2898.66 837 2895.93 837.123H2895.34C2892.51 837.177 2889.69 836.743 2887 835.84L2883.79 834.878C2878.07 833.06 2872.41 830.922 2866.58 829.532C2859.6 827.474 2852.18 827.474 2845.2 829.532C2841.92 830.822 2838.99 832.863 2836.64 835.489C2834.29 838.116 2832.59 841.257 2831.68 844.66C2811.9 909.231 2837.02 978.613 2814.73 1031.75C2796.56 1080.23 2733.7 1100.38 2689.38 1114.76C2693.7 1113.06 2697.51 1110.28 2700.45 1106.69C2702.66 1103.27 2703.68 1099.22 2703.36 1095.16C2703.05 1091.11 2701.4 1087.27 2698.69 1084.24C2695.9 1081.42 2692.48 1079.33 2688.71 1078.14C2684.94 1076.95 2680.93 1076.69 2677.04 1077.39V1077.39Z" fill="white"/>
<path d="M2644.54 1110.59C2647.28 1102.95 2651.33 1095.84 2656.51 1089.58C2661.76 1083.3 2669 1078.99 2677.04 1077.4C2681.03 1076.66 2685.15 1076.93 2689.02 1078.19C2692.88 1079.45 2696.37 1081.66 2699.17 1084.61C2701.88 1087.64 2703.53 1091.48 2703.85 1095.54C2704.16 1099.6 2703.14 1103.64 2700.93 1107.06C2697.99 1110.65 2694.18 1113.43 2689.87 1115.13C2686.33 1116.62 2682.88 1118.32 2679.55 1120.21C2670.8 1126.11 2664.51 1135.01 2661.86 1145.23C2659.22 1155.35 2657.84 1165.77 2657.74 1176.23V1178.26L2635.77 1166.07C2634.76 1147.17 2637.75 1128.26 2644.54 1110.59V1110.59Z" fill="#455A64"/>
<path opacity="0.2" d="M2644.54 1110.59C2647.28 1102.95 2651.33 1095.84 2656.51 1089.58C2661.76 1083.3 2669 1078.99 2677.04 1077.4C2681.03 1076.66 2685.15 1076.93 2689.02 1078.19C2692.88 1079.45 2696.37 1081.66 2699.17 1084.61C2701.88 1087.64 2703.53 1091.48 2703.85 1095.54C2704.16 1099.6 2703.14 1103.64 2700.93 1107.06C2697.99 1110.65 2694.18 1113.43 2689.87 1115.13C2686.33 1116.62 2682.88 1118.32 2679.55 1120.21C2670.8 1126.11 2664.51 1135.01 2661.86 1145.23C2659.22 1155.35 2657.84 1165.77 2657.74 1176.23V1178.26L2635.77 1166.07C2634.76 1147.17 2637.75 1128.26 2644.54 1110.59V1110.59Z" fill="white"/>
<path d="M2941.58 895.494L2938.05 891.646L2727.92 976.529L2747.49 1047.35L2751.02 1051.15L2961.09 966.319L2941.58 895.494Z" fill="#EF7A22"/>
<path opacity="0.2" d="M2727.92 976.528L2747.49 1047.35L2751.02 1051.15L2731.45 980.377L2727.92 976.528Z" fill="black"/>
<path opacity="0.2" d="M2941.58 895.494L2938.05 891.646L2727.92 976.529L2731.45 980.378L2941.58 895.494Z" fill="white"/>
<path d="M2840.98 992.19L2832.69 962.096C2832.58 961.69 2832.38 961.315 2832.1 960.999C2831.83 960.684 2831.48 960.437 2831.09 960.279V960.279H2830.55H2829.97C2829.58 960.229 2829.18 960.229 2828.79 960.279C2828.33 960.43 2827.91 960.686 2827.56 961.027V961.027C2827.21 961.322 2826.92 961.686 2826.71 962.096V962.096C2826.57 962.371 2826.47 962.657 2826.38 962.951C2826.37 963.093 2826.37 963.237 2826.38 963.379C2826.28 963.818 2826.28 964.276 2826.38 964.715L2829.7 976.742L2810.99 984.012L2807.68 971.985C2807.55 971.476 2807.27 971.018 2806.88 970.666C2806.49 970.314 2806 970.085 2805.48 970.007H2804.47C2804.08 969.931 2803.68 969.931 2803.29 970.007C2802.83 970.212 2802.4 970.482 2802.01 970.809C2801.67 971.113 2801.38 971.474 2801.15 971.878V971.878C2801.02 972.153 2800.92 972.439 2800.83 972.733C2800.83 972.733 2800.83 973.054 2800.83 973.161C2800.75 973.602 2800.75 974.055 2800.83 974.497L2809.17 1004.59C2809.28 1005 2809.48 1005.39 2809.76 1005.71C2809.94 1005.87 2810.13 1006 2810.35 1006.09C2810.45 1006.11 2810.56 1006.11 2810.67 1006.09C2810.67 1006.09 2810.67 1006.09 2810.67 1006.09C2810.93 1006.14 2811.21 1006.14 2811.47 1006.09H2811.95C2812.43 1006.08 2812.91 1005.97 2813.34 1005.77C2814.22 1005.45 2814.96 1004.83 2815.42 1004.02C2815.88 1003.2 2816.04 1002.25 2815.85 1001.33L2812.49 989.09L2830.71 981.713L2834.08 993.954C2834.31 994.651 2834.78 995.241 2835.42 995.611C2835.42 995.611 2835.42 995.611 2835.69 995.611C2835.95 995.667 2836.22 995.667 2836.49 995.611H2836.92C2837.16 995.641 2837.41 995.641 2837.66 995.611H2838.3C2839.04 995.363 2839.68 994.908 2840.15 994.3C2840.63 993.692 2840.91 992.959 2840.98 992.19V992.19Z" fill="white"/>
<path d="M2800.67 1004.48C2800.56 1004.12 2800.36 1003.78 2800.1 1003.5C2799.84 1003.21 2799.53 1002.98 2799.18 1002.83H2798.11C2797.79 1002.78 2797.46 1002.78 2797.15 1002.83C2796.76 1002.99 2796.4 1003.21 2796.08 1003.47V1003.47C2795.8 1003.73 2795.55 1004.01 2795.33 1004.32L2794.74 1005.13C2794.47 1005.56 2794.16 1005.97 2793.83 1006.36L2793.56 1006.73L2792.5 1007.8C2792.31 1008.06 2792.09 1008.29 2791.85 1008.49V1008.49C2791.59 1008.76 2791.21 1008.97 2790.89 1009.24L2789.88 1009.99L2788.7 1010.58L2787.2 1011.33L2785.49 1011.86H2785.07H2784.58C2781.7 1012.5 2778.68 1011.98 2776.18 1010.41C2773.68 1008.84 2771.9 1006.34 2771.22 1003.47V1003.47C2770.76 1001.73 2770.64 999.913 2770.85 998.124V998.124C2770.94 997.253 2771.12 996.394 2771.38 995.558C2771.36 995.345 2771.36 995.13 2771.38 994.917C2771.59 994.271 2771.86 993.645 2772.18 993.046C2772.52 992.357 2772.92 991.696 2773.36 991.068L2773.63 990.747C2774.1 990.11 2774.64 989.519 2775.23 988.983L2775.82 988.556C2777.07 987.467 2778.5 986.6 2780.04 985.99C2783.21 984.643 2786.75 984.472 2790.04 985.509C2790.75 985.731 2791.51 985.731 2792.23 985.509C2793.12 985.203 2793.86 984.583 2794.32 983.766C2794.79 982.949 2794.94 981.991 2794.74 981.072C2794.58 980.585 2794.31 980.144 2793.94 979.789C2793.63 979.522 2793.26 979.322 2792.87 979.201V979.201C2792.38 979.069 2791.88 978.962 2791.37 978.881H2790.3H2789.5C2788.51 978.773 2787.5 978.773 2786.51 978.881C2785.15 978.95 2783.81 979.165 2782.5 979.522C2781.18 979.845 2779.9 980.274 2778.65 980.805C2777.23 981.341 2775.87 982.022 2774.59 982.836C2773.43 983.582 2772.32 984.403 2771.27 985.295C2771.29 985.383 2771.29 985.474 2771.27 985.562C2770.37 986.418 2769.51 987.329 2768.71 988.288L2768.33 988.769C2767.58 989.749 2766.9 990.785 2766.3 991.87C2765.93 992.511 2765.72 993.26 2765.39 993.901C2765.07 994.542 2764.91 995.024 2764.7 995.558C2764.51 996.205 2764.36 996.866 2764.27 997.536C2764.08 998.147 2763.94 998.772 2763.84 999.407C2763.79 1000.28 2763.79 1001.15 2763.84 1002.03C2763.82 1002.45 2763.82 1002.88 2763.84 1003.31C2763.9 1004.61 2764.12 1005.91 2764.49 1007.16V1007.16C2764.86 1008.45 2765.37 1009.7 2765.98 1010.9C2766.2 1011.26 2766.45 1011.6 2766.73 1011.91C2767.15 1012.65 2767.63 1013.35 2768.17 1014C2768.61 1014.45 2769.08 1014.88 2769.56 1015.28L2770.42 1016.08L2771.01 1016.51H2771.43C2772.01 1016.9 2772.62 1017.24 2773.25 1017.53L2773.68 1017.79C2776.13 1018.78 2778.76 1019.27 2781.4 1019.22C2784.05 1019.17 2786.66 1018.6 2789.07 1017.53C2794.37 1015.51 2798.8 1011.74 2801.64 1006.84C2801.64 1006.4 2801.55 1005.97 2801.39 1005.56C2801.22 1005.16 2800.98 1004.79 2800.67 1004.48V1004.48Z" fill="white"/>
<path d="M2857.92 985.348L2849.64 955.254C2849.5 954.789 2849.25 954.367 2848.9 954.029C2848.56 953.692 2848.13 953.451 2847.66 953.33C2847.41 953.305 2847.16 953.305 2846.91 953.33H2846.59C2846.22 953.253 2845.84 953.253 2845.47 953.33C2845 953.535 2844.57 953.805 2844.18 954.132C2843.85 954.45 2843.57 954.809 2843.33 955.201V955.201C2843.19 955.473 2843.08 955.76 2843.01 956.056C2842.98 956.197 2842.98 956.342 2843.01 956.484C2842.9 956.923 2842.9 957.381 2843.01 957.82L2851.29 987.86C2851.45 988.435 2851.8 988.943 2852.27 989.309C2852.74 989.675 2853.32 989.879 2853.91 989.892H2854.18C2854.66 989.856 2855.13 989.748 2855.57 989.571C2856.39 989.242 2857.06 988.643 2857.49 987.875C2857.92 987.106 2858.07 986.215 2857.92 985.348V985.348Z" fill="white"/>
<path d="M2872.35 982.729L2879.62 979.843L2894.91 973.642C2895.7 973.332 2896.35 972.755 2896.75 972.011C2897.15 971.268 2897.28 970.407 2897.1 969.58C2896.94 969.035 2896.6 968.561 2896.13 968.232C2895.67 967.903 2895.11 967.738 2894.54 967.762C2894.17 967.686 2893.79 967.686 2893.41 967.762L2874.17 975.566L2871.55 965.945L2888.02 959.317C2888.79 959.009 2889.44 958.442 2889.85 957.712C2890.26 956.982 2890.41 956.132 2890.26 955.308C2890.17 954.932 2889.99 954.583 2889.74 954.287C2889.49 953.991 2889.17 953.755 2888.82 953.597H2888.28H2887.7C2887.32 953.548 2886.95 953.548 2886.57 953.597V953.597L2870.11 960.225L2867.54 950.925L2886.47 943.281C2886.88 943.114 2887.26 942.879 2887.59 942.586C2888.06 942.188 2888.42 941.671 2888.63 941.089C2888.83 940.506 2888.88 939.879 2888.76 939.272V939.272C2888.66 939.018 2888.52 938.783 2888.34 938.577C2888.1 938.305 2887.81 938.087 2887.48 937.936V937.936H2886.47C2886.06 937.953 2885.66 938.044 2885.29 938.203L2863.05 947.183C2862.59 947.388 2862.16 947.658 2861.77 947.985C2861.43 948.289 2861.14 948.65 2860.92 949.054C2860.77 949.319 2860.68 949.609 2860.65 949.909V950.337C2860.54 950.776 2860.54 951.234 2860.65 951.673L2868.77 981.179C2868.9 981.612 2869.12 982.014 2869.41 982.355V982.355H2869.68L2870.22 982.729H2870.59H2871.34H2872.09H2872.35Z" fill="white"/>
<path d="M2924.58 939.272C2924.19 939.31 2923.82 939.4 2923.46 939.539V939.539L2906.94 946.221L2904.21 936.385L2923.19 928.742C2923.99 928.451 2924.67 927.881 2925.09 927.136C2925.51 926.391 2925.65 925.519 2925.49 924.679C2925.39 924.303 2925.21 923.954 2924.96 923.658C2924.71 923.362 2924.4 923.126 2924.04 922.969C2923.71 922.913 2923.36 922.913 2923.03 922.969V922.969C2922.64 923.007 2922.27 923.097 2921.91 923.236V923.236L2899.56 932.269C2899.1 932.421 2898.68 932.677 2898.33 933.018V933.018C2897.99 933.306 2897.7 933.649 2897.48 934.033V934.033C2897.34 934.282 2897.25 934.554 2897.21 934.835C2897.19 934.995 2897.19 935.157 2897.21 935.316C2897.16 935.689 2897.16 936.067 2897.21 936.439V936.439L2905.44 966.266C2905.55 966.691 2905.77 967.079 2906.08 967.388V967.388H2906.4C2906.55 967.526 2906.71 967.651 2906.88 967.762V967.762C2907.2 967.823 2907.53 967.823 2907.85 967.762H2908.49H2908.97H2909.45L2909.93 967.442H2910.25H2910.52C2911.05 967.002 2911.44 966.424 2911.66 965.773C2911.88 965.121 2911.91 964.422 2911.75 963.753L2908.54 952.047L2925.01 945.365C2925.84 945.084 2926.54 944.513 2926.98 943.757C2927.42 943.001 2927.57 942.11 2927.41 941.25C2927.26 940.632 2926.89 940.091 2926.37 939.727C2925.85 939.363 2925.21 939.202 2924.58 939.272V939.272Z" fill="white"/>
<path d="M2836.54 780.891H2836.22C2834.8 780.977 2833.38 781.192 2832 781.532C2804.25 788.588 2777.96 852.732 2756.04 966.64C2756 966.847 2756 967.06 2756.05 967.266C2756.09 967.472 2756.17 967.668 2756.29 967.841C2756.41 968.015 2756.57 968.164 2756.74 968.278C2756.92 968.393 2757.12 968.472 2757.32 968.511H2757.64C2758.02 968.506 2758.39 968.37 2758.68 968.127C2758.97 967.884 2759.17 967.547 2759.25 967.175C2772.18 899.824 2799.6 785.755 2836.38 784.044H2837.5C2839.14 784.417 2840.67 785.148 2841.99 786.183L2850.49 790.245C2845.25 784.472 2840.44 780.891 2836.54 780.891Z" fill="#E6E6E6"/>
</svg>
